<svg xmlns="http://www.w3.org/2000/svg" xmlns:xlink="http://www.w3.org/1999/xlink" width="2000" zoomAndPan="magnify" viewBox="0 0 1500 2624.999883" height="3500" preserveAspectRatio="xMidYMid meet" version="1.0"><defs><g/><clipPath id="d35cb95672"><path d="M 14 32 L 54 32 L 54 74 L 14 74 Z M 14 32 " clip-rule="nonzero"/></clipPath><clipPath id="e3aa5c88a8"><path d="M 0.210938 -7.15625 L 94.5625 -1.25 L 88.820312 90.527344 L -5.53125 84.621094 Z M 0.210938 -7.15625 " clip-rule="nonzero"/></clipPath><clipPath id="b6594dcdea"><path d="M 0.210938 -7.15625 L 94.5625 -1.25 L 88.820312 90.527344 L -5.53125 84.621094 Z M 0.210938 -7.15625 " clip-rule="nonzero"/></clipPath><clipPath id="7518088b9c"><path d="M 41 15 L 85 15 L 85 53 L 41 53 Z M 41 15 " clip-rule="nonzero"/></clipPath><clipPath id="df2e5f4793"><path d="M 0.210938 -7.15625 L 94.5625 -1.25 L 88.820312 90.527344 L -5.53125 84.621094 Z M 0.210938 -7.15625 " clip-rule="nonzero"/></clipPath><clipPath id="d282562be8"><path d="M 0.210938 -7.15625 L 94.5625 -1.25 L 88.820312 90.527344 L -5.53125 84.621094 Z M 0.210938 -7.15625 " clip-rule="nonzero"/></clipPath><clipPath id="05a204f7e2"><rect x="0" width="713" y="0" height="264"/></clipPath></defs><rect x="-150" width="1800" fill="#ffffff" y="-262.499988" height="3149.99986" fill-opacity="1"/><rect x="-150" width="1800" fill="#f7f1ee" y="-262.499988" height="3149.99986" fill-opacity="1"/><g transform="matrix(1, 0, 0, 1, 366, 1181)"><g clip-path="url(#05a204f7e2)"><g fill="#ea6244" fill-opacity="1"><g transform="translate(56.359097, 210.162131)"><g><path d="M 41.375 -65.203125 C 37.757812 -69.523438 33.785156 -72.84375 29.453125 -75.15625 C 28.015625 -76.019531 25.847656 -77.25 22.953125 -78.84375 L 22.953125 -63.890625 C 22.953125 -53.066406 22.59375 -41.585938 21.875 -29.453125 C 21.726562 -25.117188 21.367188 -18.625 20.796875 -9.96875 C 21.953125 -10.113281 24.332031 -10.472656 27.9375 -11.046875 C 32.269531 -11.765625 36.601562 -13.640625 40.9375 -16.671875 C 45.414062 -19.566406 48.519531 -22.816406 50.25 -26.421875 C 52.125 -29.742188 53.0625 -33.5 53.0625 -37.6875 C 53.0625 -47.21875 49.164062 -56.390625 41.375 -65.203125 Z M 34.4375 -129.75 C 32.5625 -131.476562 30.179688 -132.847656 27.296875 -133.859375 C 26.285156 -134.285156 24.835938 -134.863281 22.953125 -135.59375 L 22.953125 -118.90625 C 22.953125 -112.125 23.097656 -107.796875 23.390625 -105.921875 C 23.535156 -104.179688 23.96875 -103.3125 24.6875 -103.3125 C 24.976562 -103.457031 25.410156 -103.601562 25.984375 -103.75 C 28.296875 -105.050781 30.679688 -107.289062 33.140625 -110.46875 C 35.878906 -114.070312 37.25 -117.894531 37.25 -121.9375 C 37.25 -125.40625 36.3125 -128.007812 34.4375 -129.75 Z M 6.5 -151.625 C 6.925781 -152.632812 9.09375 -153.140625 13 -153.140625 C 18.914062 -153.140625 24.691406 -152.269531 30.328125 -150.53125 C 38.703125 -148.226562 45.054688 -144.546875 49.390625 -139.484375 C 53.859375 -134.429688 56.09375 -128.800781 56.09375 -122.59375 C 56.09375 -113.925781 52.125 -105.550781 44.1875 -97.46875 C 42.59375 -95.738281 40.207031 -93.285156 37.03125 -90.109375 C 37.90625 -89.523438 39.785156 -88.367188 42.671875 -86.640625 C 45.703125 -84.765625 49.3125 -81.515625 53.5 -76.890625 C 57.6875 -72.410156 61.082031 -68.148438 63.6875 -64.109375 C 65.84375 -60.503906 67.71875 -56.03125 69.3125 -50.6875 C 70.894531 -45.34375 71.6875 -40.429688 71.6875 -35.953125 C 71.6875 -34.367188 71.617188 -33.210938 71.484375 -32.484375 C 70.328125 -24.398438 66.785156 -17.035156 60.859375 -10.390625 C 54.941406 -3.753906 47.722656 0.71875 39.203125 3.03125 C 34.722656 4.625 29.304688 5.421875 22.953125 5.421875 C 15.734375 5.421875 10.96875 4.40625 8.65625 2.375 C 7.789062 1.800781 6.640625 0.863281 5.203125 -0.4375 C 5.203125 -12.851562 5.273438 -37.757812 5.421875 -75.15625 C 5.703125 -125.550781 6.0625 -151.039062 6.5 -151.625 Z M 6.5 -151.625 "/></g></g></g><g fill="#fbaaa8" fill-opacity="1"><g transform="translate(133.907165, 210.162131)"><g><path d="M 53.0625 -17.765625 L 53.0625 -31.84375 C 51.90625 -31.84375 49.738281 -31.769531 46.5625 -31.625 C 39.34375 -31.476562 33.207031 -30.109375 28.15625 -27.515625 C 25.988281 -26.210938 24.90625 -24.984375 24.90625 -23.828125 C 24.90625 -21.953125 26.640625 -20.507812 30.109375 -19.5 C 33.578125 -18.34375 38.125 -17.765625 43.75 -17.765625 Z M 7.796875 -103.96875 C 8.953125 -105.125 12.992188 -105.703125 19.921875 -105.703125 C 28.878906 -105.703125 36.242188 -104.90625 42.015625 -103.3125 C 47.648438 -101.726562 52.707031 -98.625 57.1875 -94 C 61.65625 -89.382812 64.832031 -84.039062 66.71875 -77.96875 C 68.738281 -72.050781 69.75 -57.972656 69.75 -35.734375 C 69.75 -19.566406 69.382812 -9.242188 68.65625 -4.765625 C 67.9375 -0.140625 66.28125 2.171875 63.6875 2.171875 C 63.25 2.171875 62.164062 2.023438 60.4375 1.734375 C 59.851562 1.585938 53.425781 0.863281 41.15625 -0.4375 C 32.78125 -1.15625 25.847656 -2.453125 20.359375 -4.328125 C 10.679688 -8.367188 5.84375 -14.578125 5.84375 -22.953125 C 5.84375 -31.617188 10.535156 -38.265625 19.921875 -42.890625 C 23.097656 -44.472656 27.503906 -45.914062 33.140625 -47.21875 C 38.628906 -48.519531 43.25 -49.171875 47 -49.171875 L 51.984375 -49.171875 C 51.835938 -51.191406 51.550781 -55.160156 51.125 -61.078125 C 50.25 -71.191406 47.789062 -78.195312 43.75 -82.09375 C 39.707031 -86.132812 32.269531 -88.660156 21.4375 -89.671875 C 13.351562 -90.535156 8.878906 -91.398438 8.015625 -92.265625 C 6.710938 -93.273438 6.0625 -95.296875 6.0625 -98.328125 C 6.0625 -100.929688 6.640625 -102.8125 7.796875 -103.96875 Z M 7.796875 -103.96875 "/></g></g></g><g fill="#f0c13f" fill-opacity="1"><g transform="translate(208.420452, 210.162131)"><g><path d="M 36.171875 -54.796875 C 33.140625 -56.390625 30.253906 -57.1875 27.515625 -57.1875 L 23.609375 -57.1875 L 23.609375 -22.53125 C 24.328125 -22.675781 25.769531 -23.035156 27.9375 -23.609375 C 31.40625 -24.472656 34.875 -25.914062 38.34375 -27.9375 C 41.945312 -29.8125 44.039062 -31.472656 44.625 -32.921875 C 45.34375 -35.085938 45.703125 -37.179688 45.703125 -39.203125 C 45.703125 -46.421875 42.523438 -51.617188 36.171875 -54.796875 Z M 8.015625 -150.96875 C 9.171875 -152.414062 11.265625 -153.140625 14.296875 -153.140625 C 17.035156 -153.140625 18.984375 -152.488281 20.140625 -151.1875 C 21.296875 -150.03125 21.875 -144.976562 21.875 -136.03125 C 21.875 -125.488281 22.234375 -112.992188 22.953125 -98.546875 C 23.535156 -87.722656 23.972656 -81.007812 24.265625 -78.40625 C 24.691406 -75.8125 25.484375 -74.515625 26.640625 -74.515625 C 30.828125 -74.515625 35.519531 -73.285156 40.71875 -70.828125 C 45.914062 -68.367188 50.25 -65.476562 53.71875 -62.15625 C 60.9375 -54.9375 64.546875 -47.210938 64.546875 -38.984375 C 64.546875 -31.335938 61.296875 -24.550781 54.796875 -18.625 C 48.441406 -12.5625 39.632812 -8.664062 28.375 -6.9375 C 26.0625 -6.644531 24.1875 -6.5 22.75 -6.5 C 14.945312 -6.5 10.320312 -8.445312 8.875 -12.34375 C 6.425781 -18.695312 5.203125 -45.484375 5.203125 -92.703125 C 5.203125 -129.523438 6.140625 -148.945312 8.015625 -150.96875 Z M 8.015625 -150.96875 "/></g></g></g><g fill="#439e77" fill-opacity="1"><g transform="translate(279.039555, 210.162131)"><g><path d="M 61.953125 -98.546875 C 63.679688 -100.285156 65.628906 -101.15625 67.796875 -101.15625 C 70.109375 -101.15625 72.128906 -100.285156 73.859375 -98.546875 C 74.867188 -97.253906 75.59375 -93.863281 76.03125 -88.375 C 76.457031 -82.882812 76.816406 -70.679688 77.109375 -51.765625 C 77.253906 -44.835938 77.328125 -36.390625 77.328125 -26.421875 C 77.328125 -12.421875 76.894531 -2.53125 76.03125 3.25 C 71.257812 29.09375 56.457031 43.96875 31.625 47.875 C 27.582031 48.445312 24.984375 48.734375 23.828125 48.734375 C 18.628906 48.734375 15.523438 47 14.515625 43.53125 C 14.222656 42.8125 14.078125 41.726562 14.078125 40.28125 C 14.078125 35.664062 18.046875 32.925781 25.984375 32.0625 C 39.273438 30.757812 48.519531 24.984375 53.71875 14.734375 C 56.03125 10.253906 57.398438 6.28125 57.828125 2.8125 C 58.265625 -0.644531 58.628906 -10.175781 58.921875 -25.78125 L 59.5625 -56.96875 C 58.695312 -56.820312 56.960938 -56.390625 54.359375 -55.671875 C 51.046875 -54.660156 46.570312 -54.15625 40.9375 -54.15625 C 33.28125 -54.15625 27.578125 -55.09375 23.828125 -56.96875 C 18.191406 -59.5625 13.785156 -63.675781 10.609375 -69.3125 C 7.429688 -74.945312 5.84375 -81.445312 5.84375 -88.8125 C 5.84375 -91.84375 6.0625 -93.9375 6.5 -95.09375 C 6.925781 -96.238281 7.789062 -97.25 9.09375 -98.125 C 10.6875 -98.988281 12.203125 -99.421875 13.640625 -99.421875 C 17.679688 -99.421875 20.066406 -97.472656 20.796875 -93.578125 C 22.097656 -87.222656 23.320312 -82.890625 24.46875 -80.578125 C 25.476562 -78.265625 26.925781 -76.457031 28.8125 -75.15625 C 32.414062 -72.84375 37.320312 -71.6875 43.53125 -71.6875 C 46.28125 -71.6875 49.316406 -72.050781 52.640625 -72.78125 L 59.125 -74.71875 L 59.125 -84.90625 C 59.125 -92.125 60.066406 -96.671875 61.953125 -98.546875 Z M 61.953125 -98.546875 "/></g></g></g><g fill="#9ac1e8" fill-opacity="1"><g transform="translate(361.354647, 210.162131)"><g><path d="M 38.34375 -146.203125 C 43.25 -148.367188 48.300781 -149.453125 53.5 -149.453125 C 58.40625 -149.453125 62.519531 -148.515625 65.84375 -146.640625 C 69.3125 -144.765625 71.046875 -142.164062 71.046875 -138.84375 C 71.046875 -136.238281 70.394531 -134.285156 69.09375 -132.984375 C 67.9375 -131.835938 65.84375 -131.265625 62.8125 -131.265625 C 62.09375 -131.265625 60.070312 -131.40625 56.75 -131.6875 C 53.28125 -131.976562 51.1875 -132.125 50.46875 -132.125 C 47.582031 -132.125 44.691406 -130.96875 41.796875 -128.65625 C 36.023438 -124.320312 31.550781 -116.957031 28.375 -106.5625 C 25.195312 -96.019531 23.609375 -83.53125 23.609375 -69.09375 C 23.609375 -65.625 23.679688 -63.023438 23.828125 -61.296875 C 24.253906 -51.617188 25.410156 -44.035156 27.296875 -38.546875 C 29.171875 -33.066406 32.203125 -28.8125 36.390625 -25.78125 C 39.992188 -23.03125 44.90625 -21.65625 51.125 -21.65625 C 56.175781 -21.65625 60.578125 -22.664062 64.328125 -24.6875 C 68.515625 -26.707031 71.765625 -27.71875 74.078125 -27.71875 C 78.265625 -27.71875 80.359375 -25.410156 80.359375 -20.796875 C 80.359375 -20.503906 80.285156 -20.140625 80.140625 -19.703125 L 80.140625 -18.84375 C 79.703125 -14.945312 76.3125 -11.550781 69.96875 -8.65625 C 63.75 -5.769531 56.957031 -4.328125 49.59375 -4.328125 C 45.695312 -4.328125 42.523438 -4.757812 40.078125 -5.625 C 32.421875 -7.644531 25.847656 -11.546875 20.359375 -17.328125 C 14.722656 -23.242188 10.609375 -30.679688 8.015625 -39.640625 C 6.285156 -45.847656 5.421875 -55.445312 5.421875 -68.4375 C 5.421875 -82.59375 6.359375 -93.5 8.234375 -101.15625 C 10.828125 -112.125 14.796875 -121.507812 20.140625 -129.3125 C 25.335938 -137.101562 31.40625 -142.734375 38.34375 -146.203125 Z M 38.34375 -146.203125 "/></g></g></g><g fill="#0967a6" fill-opacity="1"><g transform="translate(447.563929, 210.162131)"><g><path d="M 9.53125 -84.046875 C 11.84375 -85.921875 13.503906 -86.859375 14.515625 -86.859375 C 16.828125 -87.003906 18.703125 -86.28125 20.140625 -84.6875 C 21.148438 -83.382812 21.945312 -82.300781 22.53125 -81.4375 C 22.957031 -80.425781 23.171875 -79.054688 23.171875 -77.328125 C 23.171875 -69.960938 23.03125 -58.914062 22.75 -44.1875 C 22.457031 -19.207031 21.804688 -5.707031 20.796875 -3.6875 C 19.347656 -0.9375 16.890625 0.4375 13.421875 0.4375 C 11.265625 0.4375 9.460938 -0.210938 8.015625 -1.515625 C 6.859375 -2.523438 6.0625 -4.039062 5.625 -6.0625 C 5.34375 -7.9375 5.203125 -12.195312 5.203125 -18.84375 C 5.203125 -27.65625 5.273438 -35.597656 5.421875 -42.671875 C 5.703125 -61.878906 5.988281 -73.210938 6.28125 -76.671875 C 6.570312 -80.140625 7.65625 -82.597656 9.53125 -84.046875 Z M 8.015625 -123.03125 C 9.597656 -124.039062 11.332031 -124.546875 13.21875 -124.546875 C 15.8125 -124.546875 17.972656 -123.75 19.703125 -122.15625 C 21.441406 -120.570312 22.3125 -118.695312 22.3125 -116.53125 C 22.3125 -114.507812 21.441406 -112.488281 19.703125 -110.46875 C 17.828125 -108.59375 15.300781 -107.65625 12.125 -107.65625 C 9.8125 -107.65625 8.082031 -108.226562 6.9375 -109.375 C 5.78125 -110.53125 5.203125 -112.484375 5.203125 -115.234375 C 5.203125 -119.421875 6.140625 -122.019531 8.015625 -123.03125 Z M 8.015625 -123.03125 "/></g></g></g><g fill="#ea6344" fill-opacity="1"><g transform="translate(475.722937, 210.162131)"><g><path d="M 17.984375 -155.953125 C 19.566406 -158.265625 21.660156 -159.421875 24.265625 -159.421875 C 26.710938 -159.421875 28.585938 -158.335938 29.890625 -156.171875 C 31.191406 -154.429688 31.84375 -151.035156 31.84375 -145.984375 L 31.84375 -143.171875 C 31.695312 -141.867188 31.625 -140.785156 31.625 -139.921875 C 31.476562 -137.898438 31.40625 -133.785156 31.40625 -127.578125 C 31.40625 -119.628906 31.550781 -113.925781 31.84375 -110.46875 L 33.140625 -93.578125 C 34.441406 -93.578125 37.1875 -93.429688 41.375 -93.140625 C 46.425781 -92.703125 49.960938 -91.832031 51.984375 -90.53125 C 53.859375 -89.238281 54.796875 -87.003906 54.796875 -83.828125 C 54.796875 -81.078125 54.003906 -79.195312 52.421875 -78.1875 C 50.828125 -77.175781 47.429688 -76.457031 42.234375 -76.03125 C 40.210938 -75.882812 37.328125 -75.59375 33.578125 -75.15625 L 33.578125 -47.65625 C 33.722656 -34.082031 34.082031 -25.273438 34.65625 -21.234375 C 35.226562 -17.179688 36.742188 -13.28125 39.203125 -9.53125 C 40.066406 -8.226562 40.5 -6.925781 40.5 -5.625 C 40.5 -3.601562 39.847656 -1.800781 38.546875 -0.21875 C 37.253906 1.375 35.523438 2.238281 33.359375 2.375 L 31.40625 2.375 C 28.945312 2.375 26.492188 0.5 24.046875 -3.25 C 20.867188 -8.15625 18.554688 -14.003906 17.109375 -20.796875 C 15.804688 -27.578125 14.867188 -37.753906 14.296875 -51.328125 C 13.578125 -67.796875 12.851562 -76.03125 12.125 -76.03125 C 11.257812 -76.03125 10.035156 -76.820312 8.453125 -78.40625 C 6.859375 -80.144531 6.0625 -82.023438 6.0625 -84.046875 C 6.0625 -87.078125 7.289062 -89.382812 9.75 -90.96875 C 11.476562 -92.125 12.5625 -94.21875 13 -97.25 C 13.425781 -100.132812 14.003906 -108.65625 14.734375 -122.8125 C 15.597656 -142.445312 16.679688 -153.492188 17.984375 -155.953125 Z M 17.984375 -155.953125 "/></g></g></g><g fill="#fbaba8" fill-opacity="1"><g transform="translate(536.59314, 210.162131)"><g><path d="M 9.53125 -84.046875 C 11.84375 -85.921875 13.503906 -86.859375 14.515625 -86.859375 C 16.828125 -87.003906 18.703125 -86.28125 20.140625 -84.6875 C 21.148438 -83.382812 21.945312 -82.300781 22.53125 -81.4375 C 22.957031 -80.425781 23.171875 -79.054688 23.171875 -77.328125 C 23.171875 -69.960938 23.03125 -58.914062 22.75 -44.1875 C 22.457031 -19.207031 21.804688 -5.707031 20.796875 -3.6875 C 19.347656 -0.9375 16.890625 0.4375 13.421875 0.4375 C 11.265625 0.4375 9.460938 -0.210938 8.015625 -1.515625 C 6.859375 -2.523438 6.0625 -4.039062 5.625 -6.0625 C 5.34375 -7.9375 5.203125 -12.195312 5.203125 -18.84375 C 5.203125 -27.65625 5.273438 -35.597656 5.421875 -42.671875 C 5.703125 -61.878906 5.988281 -73.210938 6.28125 -76.671875 C 6.570312 -80.140625 7.65625 -82.597656 9.53125 -84.046875 Z M 8.015625 -123.03125 C 9.597656 -124.039062 11.332031 -124.546875 13.21875 -124.546875 C 15.8125 -124.546875 17.972656 -123.75 19.703125 -122.15625 C 21.441406 -120.570312 22.3125 -118.695312 22.3125 -116.53125 C 22.3125 -114.507812 21.441406 -112.488281 19.703125 -110.46875 C 17.828125 -108.59375 15.300781 -107.65625 12.125 -107.65625 C 9.8125 -107.65625 8.082031 -108.226562 6.9375 -109.375 C 5.78125 -110.53125 5.203125 -112.484375 5.203125 -115.234375 C 5.203125 -119.421875 6.140625 -122.019531 8.015625 -123.03125 Z M 8.015625 -123.03125 "/></g></g></g><g fill="#439e77" fill-opacity="1"><g transform="translate(564.752148, 210.162131)"><g><path d="M 41.15625 -96.609375 C 39.851562 -97.617188 38.117188 -98.125 35.953125 -98.125 C 33.929688 -98.125 32.269531 -97.6875 30.96875 -96.8125 C 29.8125 -96.09375 28.585938 -94.578125 27.296875 -92.265625 C 26.140625 -89.960938 25.5625 -87.941406 25.5625 -86.203125 C 25.5625 -85.046875 26.140625 -84.46875 27.296875 -84.46875 C 28.878906 -84.46875 32.125 -85.410156 37.03125 -87.296875 C 40.789062 -88.734375 42.671875 -90.96875 42.671875 -94 C 42.671875 -95.15625 42.164062 -96.023438 41.15625 -96.609375 Z M 29.453125 -115.65625 C 31.472656 -116.09375 33.425781 -116.3125 35.3125 -116.3125 C 41.800781 -116.3125 47.429688 -114.070312 52.203125 -109.59375 C 56.960938 -105.125 59.34375 -99.785156 59.34375 -93.578125 C 59.34375 -87.078125 56.816406 -81.585938 51.765625 -77.109375 C 46.710938 -72.628906 39.707031 -69.671875 30.75 -68.234375 C 29.164062 -68.085938 26.710938 -67.722656 23.390625 -67.140625 C 23.390625 -64.546875 23.460938 -59.273438 23.609375 -51.328125 C 23.753906 -41.941406 24.40625 -35.082031 25.5625 -30.75 C 26.71875 -26.5625 28.882812 -23.023438 32.0625 -20.140625 C 35.375 -17.691406 38.1875 -16.46875 40.5 -16.46875 C 43.101562 -16.46875 46.785156 -17.691406 51.546875 -20.140625 C 56.171875 -22.742188 59.492188 -24.046875 61.515625 -24.046875 C 63.679688 -24.046875 65.628906 -22.671875 67.359375 -19.921875 C 68.515625 -18.046875 69.09375 -16.75 69.09375 -16.03125 C 69.09375 -15.164062 68.367188 -13.722656 66.921875 -11.703125 C 64.328125 -8.234375 60.578125 -5.488281 55.671875 -3.46875 C 50.609375 -1.445312 45.335938 -0.4375 39.859375 -0.4375 C 34.222656 -0.4375 29.457031 -1.445312 25.5625 -3.46875 C 18.769531 -7.070312 13.859375 -12.628906 10.828125 -20.140625 C 7.941406 -27.648438 6.207031 -39.128906 5.625 -54.578125 C 5.625 -55.585938 5.554688 -57.101562 5.421875 -59.125 L 5.421875 -63.46875 C 5.421875 -79.78125 7.296875 -91.976562 11.046875 -100.0625 C 14.941406 -108.300781 21.078125 -113.5 29.453125 -115.65625 Z M 29.453125 -115.65625 "/></g></g></g><g fill="#f0c140" fill-opacity="1"><g transform="translate(640.138271, 210.162131)"><g><path d="M 45.484375 -98.125 C 47.796875 -98.40625 49.164062 -98.546875 49.59375 -98.546875 C 51.757812 -98.546875 53.640625 -97.753906 55.234375 -96.171875 C 56.679688 -94.722656 57.40625 -93.347656 57.40625 -92.046875 C 57.40625 -91.179688 57.1875 -89.957031 56.75 -88.375 C 56.03125 -86.207031 55.234375 -84.691406 54.359375 -83.828125 C 53.492188 -82.960938 51.976562 -82.238281 49.8125 -81.65625 C 43.457031 -79.925781 40.28125 -77.546875 40.28125 -74.515625 C 40.28125 -71.484375 43.382812 -66.351562 49.59375 -59.125 C 60.132812 -46.851562 65.40625 -36.960938 65.40625 -29.453125 C 65.40625 -26.421875 64.757812 -23.316406 63.46875 -20.140625 C 58.695312 -8.878906 49.742188 -3.25 36.609375 -3.25 L 35.734375 -3.25 C 26.785156 -3.25 18.703125 -6.570312 11.484375 -13.21875 C 7.867188 -16.820312 6.0625 -20 6.0625 -22.75 C 6.0625 -24.625 6.859375 -26.351562 8.453125 -27.9375 C 9.890625 -29.382812 11.476562 -30.109375 13.21875 -30.109375 C 16.101562 -30.109375 19.492188 -28.519531 23.390625 -25.34375 C 27.285156 -22.019531 31.472656 -20.359375 35.953125 -20.359375 C 43.171875 -20.503906 46.78125 -23.175781 46.78125 -28.375 C 46.78125 -30.832031 46.0625 -33.429688 44.625 -36.171875 C 43.175781 -38.773438 40.070312 -42.890625 35.3125 -48.515625 C 29.96875 -54.578125 26.644531 -59.414062 25.34375 -63.03125 C 24.039062 -66.207031 23.390625 -69.53125 23.390625 -73 C 23.390625 -79.0625 25.410156 -84.472656 29.453125 -89.234375 C 33.492188 -93.859375 38.835938 -96.820312 45.484375 -98.125 Z M 45.484375 -98.125 "/></g></g></g><g clip-path="url(#d35cb95672)"><g clip-path="url(#e3aa5c88a8)"><g clip-path="url(#b6594dcdea)"><path fill="#f0c13f" d="M 37.238281 35.023438 C 42.929688 38.660156 54.34375 49.660156 53.597656 57.871094 C 53.121094 63.136719 41.503906 67.738281 40.683594 68.113281 C 34.972656 70.691406 28.738281 72.808594 22.496094 73.390625 C 20.125 73.609375 14.222656 73.304688 14.277344 69.492188 C 14.308594 67.21875 16.472656 65.421875 18.128906 64.183594 C 22.300781 61.078125 27.621094 59.011719 32.625 57.683594 C 33.339844 57.496094 39.125 56.21875 39.125 56.21875 C 39.125 56.21875 33.878906 52.390625 33.132812 51.875 C 28.832031 48.910156 22.371094 43.0625 22.621094 37.292969 C 22.941406 29.828125 33.554688 32.667969 37.238281 35.023438 Z M 37.238281 35.023438 " fill-opacity="1" fill-rule="evenodd"/></g></g></g><g clip-path="url(#7518088b9c)"><g clip-path="url(#df2e5f4793)"><g clip-path="url(#d282562be8)"><path fill="#9ac1e7" d="M 84.007812 29.339844 C 82.335938 35.882812 75.457031 50.167969 67.425781 52.023438 C 62.273438 53.21875 54.269531 43.625 53.65625 42.960938 C 49.421875 38.34375 45.460938 33.085938 42.953125 27.335938 C 42.003906 25.15625 40.449219 19.453125 44.085938 18.3125 C 46.253906 17.632812 48.640625 19.125 50.332031 20.308594 C 54.585938 23.300781 58.214844 27.707031 61.039062 32.046875 C 61.441406 32.664062 64.464844 37.761719 64.464844 37.761719 C 64.464844 37.761719 66.460938 31.578125 66.71875 30.710938 C 68.1875 25.699219 71.722656 17.734375 77.277344 16.164062 C 84.46875 14.136719 85.09375 25.105469 84.007812 29.339844 Z M 84.007812 29.339844 " fill-opacity="1" fill-rule="evenodd"/></g></g></g></g></g></svg>