<svg xmlns="http://www.w3.org/2000/svg" xmlns:xlink="http://www.w3.org/1999/xlink" width="500" zoomAndPan="magnify" viewBox="0 0 375 374.999991" height="500" preserveAspectRatio="xMidYMid meet" version="1.0"><defs><clipPath id="1800e8558a"><path d="M 78.117188 37 L 296.867188 37 L 296.867188 338 L 78.117188 338 Z M 78.117188 37 " clip-rule="nonzero"/></clipPath><clipPath id="da49d34179"><path d="M 78.117188 139.296875 C 78.117188 91.132812 127.085938 37.5 187.492188 37.5 C 247.898438 37.5 296.867188 91.132812 296.867188 139.296875 C 296.867188 268.683594 187.492188 337.5 187.492188 337.5 C 187.492188 337.5 78.117188 272.171875 78.117188 139.296875 Z M 78.117188 139.296875 " clip-rule="nonzero"/></clipPath><clipPath id="6a4533f92d"><path d="M 0.117188 0.441406 L 218.867188 0.441406 L 218.867188 300.679688 L 0.117188 300.679688 Z M 0.117188 0.441406 " clip-rule="nonzero"/></clipPath><clipPath id="7f72820c92"><path d="M 0.117188 102.296875 C 0.117188 54.132812 49.085938 0.5 109.492188 0.5 C 169.898438 0.5 218.867188 54.132812 218.867188 102.296875 C 218.867188 231.683594 109.492188 300.5 109.492188 300.5 C 109.492188 300.5 0.117188 235.171875 0.117188 102.296875 Z M 0.117188 102.296875 " clip-rule="nonzero"/></clipPath><clipPath id="fbeb9590f1"><rect x="0" width="219" y="0" height="301"/></clipPath><clipPath id="d400cabf18"><path d="M 78.125 37.503906 L 296.867188 37.503906 L 296.867188 337.496094 L 78.125 337.496094 Z M 78.125 37.503906 " clip-rule="nonzero"/></clipPath><clipPath id="2b89a0cdae"><path d="M 78.125 139.296875 C 78.125 91.136719 127.09375 37.503906 187.496094 37.503906 C 247.898438 37.503906 296.867188 91.136719 296.867188 139.296875 C 296.867188 268.679688 187.496094 337.496094 187.496094 337.496094 C 187.496094 337.496094 78.125 272.167969 78.125 139.296875 Z M 78.125 139.296875 " clip-rule="nonzero"/></clipPath></defs><g clip-path="url(#1800e8558a)"><g clip-path="url(#da49d34179)"><g transform="matrix(1, 0, 0, 1, 78, 37)"><g clip-path="url(#fbeb9590f1)"><g clip-path="url(#6a4533f92d)"><g clip-path="url(#7f72820c92)"><path fill="#f0c140" d="M 218.867188 300.5 L 0.117188 300.5 L 0.117188 0.574219 L 218.867188 0.574219 Z M 218.867188 300.5 " fill-opacity="1" fill-rule="nonzero"/></g></g></g></g></g></g><g clip-path="url(#d400cabf18)"><g clip-path="url(#2b89a0cdae)"><path stroke-linecap="butt" transform="matrix(-0.75, 0, 0, -0.75, 296.867152, 337.494616)" fill="none" stroke-linejoin="miter" d="M 291.656222 264.263672 C 291.656222 328.477218 226.364551 399.98764 145.828088 399.98764 C 65.291624 399.98764 -0.000047059 328.477218 -0.000047059 264.263672 C -0.000047059 91.753244 145.828088 -0.00197002 145.828088 -0.00197002 C 145.828088 -0.00197002 291.656222 87.102202 291.656222 264.263672 Z M 291.656222 264.263672 " stroke="#f0c140" stroke-width="18" stroke-opacity="1" stroke-miterlimit="4"/></g></g><path fill="#ffffff" d="M 196.335938 175.742188 L 207.550781 164.527344 L 258.050781 215.050781 L 246.859375 226.242188 Z M 230 130.808594 L 252.429688 108.378906 C 221.453125 77.40625 171.265625 77.328125 140.289062 108.222656 C 171.109375 98.027344 205.457031 106.261719 230 130.808594 Z M 140.054688 108.457031 C 109.160156 139.433594 109.238281 189.621094 140.210938 220.597656 L 162.640625 198.167969 C 138.09375 173.625 129.859375 139.277344 140.054688 108.457031 Z M 140.210938 108.300781 L 140.132812 108.378906 C 137.152344 131.984375 149.308594 162.332031 173.851562 186.953125 L 218.785156 142.019531 C 194.242188 117.476562 163.816406 105.320312 140.210938 108.300781 Z M 140.210938 108.300781 " fill-opacity="1" fill-rule="nonzero"/></svg>