<svg xmlns="http://www.w3.org/2000/svg" xmlns:xlink="http://www.w3.org/1999/xlink" width="500" zoomAndPan="magnify" viewBox="0 0 375 374.999991" height="500" preserveAspectRatio="xMidYMid meet" version="1.0"><defs><clipPath id="4b6708ba96"><path d="M 78.117188 37 L 296.867188 37 L 296.867188 338 L 78.117188 338 Z M 78.117188 37 " clip-rule="nonzero"/></clipPath><clipPath id="7fe98bd755"><path d="M 78.117188 139.296875 C 78.117188 91.132812 127.085938 37.5 187.492188 37.5 C 247.898438 37.5 296.867188 91.132812 296.867188 139.296875 C 296.867188 268.683594 187.492188 337.5 187.492188 337.5 C 187.492188 337.5 78.117188 272.171875 78.117188 139.296875 Z M 78.117188 139.296875 " clip-rule="nonzero"/></clipPath><clipPath id="4bb03ca185"><path d="M 0.117188 0.441406 L 218.867188 0.441406 L 218.867188 300.679688 L 0.117188 300.679688 Z M 0.117188 0.441406 " clip-rule="nonzero"/></clipPath><clipPath id="4ff4b2de31"><path d="M 0.117188 102.296875 C 0.117188 54.132812 49.085938 0.5 109.492188 0.5 C 169.898438 0.5 218.867188 54.132812 218.867188 102.296875 C 218.867188 231.683594 109.492188 300.5 109.492188 300.5 C 109.492188 300.5 0.117188 235.171875 0.117188 102.296875 Z M 0.117188 102.296875 " clip-rule="nonzero"/></clipPath><clipPath id="f42b679960"><rect x="0" width="219" y="0" height="301"/></clipPath><clipPath id="244bccaf59"><path d="M 78.125 37.503906 L 296.867188 37.503906 L 296.867188 337.496094 L 78.125 337.496094 Z M 78.125 37.503906 " clip-rule="nonzero"/></clipPath><clipPath id="f95136898a"><path d="M 78.125 139.296875 C 78.125 91.136719 127.09375 37.503906 187.496094 37.503906 C 247.898438 37.503906 296.867188 91.136719 296.867188 139.296875 C 296.867188 268.679688 187.496094 337.496094 187.496094 337.496094 C 187.496094 337.496094 78.125 272.167969 78.125 139.296875 Z M 78.125 139.296875 " clip-rule="nonzero"/></clipPath><clipPath id="c6141f0004"><path d="M 124.007812 155 L 238 155 L 238 241.960938 L 124.007812 241.960938 Z M 124.007812 155 " clip-rule="nonzero"/></clipPath><clipPath id="e8457a6bf4"><path d="M 171 81.460938 L 186 81.460938 L 186 138 L 171 138 Z M 171 81.460938 " clip-rule="nonzero"/></clipPath></defs><g clip-path="url(#4b6708ba96)"><g clip-path="url(#7fe98bd755)"><g transform="matrix(1, 0, 0, 1, 78, 37)"><g clip-path="url(#f42b679960)"><g clip-path="url(#4bb03ca185)"><g clip-path="url(#4ff4b2de31)"><path fill="#844b30" d="M 218.867188 300.5 L 0.117188 300.5 L 0.117188 0.574219 L 218.867188 0.574219 Z M 218.867188 300.5 " fill-opacity="1" fill-rule="nonzero"/></g></g></g></g></g></g><g clip-path="url(#244bccaf59)"><g clip-path="url(#f95136898a)"><path stroke-linecap="butt" transform="matrix(-0.75, 0, 0, -0.75, 296.867152, 337.494616)" fill="none" stroke-linejoin="miter" d="M 291.656222 264.263672 C 291.656222 328.477218 226.364551 399.98764 145.828088 399.98764 C 65.291624 399.98764 -0.000047059 328.477218 -0.000047059 264.263672 C -0.000047059 91.753244 145.828088 -0.00197002 145.828088 -0.00197002 C 145.828088 -0.00197002 291.656222 87.102202 291.656222 264.263672 Z M 291.656222 264.263672 " stroke="#844b30" stroke-width="18" stroke-opacity="1" stroke-miterlimit="4"/></g></g><g clip-path="url(#c6141f0004)"><path fill="#ffffff" d="M 125.132812 155.609375 L 236.507812 155.609375 L 237.539062 156.640625 C 237.730469 179.488281 232.035156 202.367188 219.644531 221.707031 C 217.714844 224.699219 205.421875 240.886719 203.074219 241.5 C 200.917969 242.046875 160.980469 242.011719 158.824219 241.5 C 155.511719 240.726562 143.863281 224.734375 141.671875 221.128906 C 129.832031 201.628906 124.007812 178.359375 125.101562 155.640625 Z M 125.132812 155.609375 " fill-opacity="1" fill-rule="nonzero"/></g><path fill="#ffffff" d="M 240.59375 159.730469 C 256.847656 159.566406 269.71875 171.730469 268.300781 188.304688 C 266.757812 205.875 244.648438 218.746094 229.332031 208.835938 C 230.296875 207.933594 232.773438 201.144531 233.128906 200.917969 C 234.125 200.308594 240.691406 205.519531 249.992188 199.890625 C 263.796875 191.523438 259.96875 170.316406 240.464844 168.675781 L 240.628906 159.730469 Z M 240.59375 159.730469 " fill-opacity="1" fill-rule="nonzero"/><g clip-path="url(#e8457a6bf4)"><path fill="#ffffff" d="M 179.066406 81.46875 C 190.523438 82.785156 178.390625 88.804688 179.808594 102.417969 C 180.675781 110.878906 192.226562 124.71875 179.644531 137.136719 C 169.1875 137.976562 176.332031 129.320312 176.847656 125.265625 C 178.230469 114.773438 168.125 106.726562 172.148438 91.28125 C 173.015625 88 175.71875 82.753906 179.035156 81.46875 Z M 179.066406 81.46875 " fill-opacity="1" fill-rule="nonzero"/></g><path fill="#ffffff" d="M 207.191406 86.746094 C 216.332031 87.96875 208.867188 95.015625 207.933594 100.066406 C 205.488281 113.390625 217.039062 120.695312 211.441406 135.53125 C 207.738281 145.34375 200.691406 142.542969 201.175781 137.589844 C 201.304688 136.398438 205.390625 131.507812 204.390625 123.816406 C 203.84375 119.730469 198.214844 111.394531 199.113281 100.96875 C 199.4375 97.074219 202.492188 87.324219 207.160156 86.746094 Z M 207.191406 86.746094 " fill-opacity="1" fill-rule="nonzero"/><path fill="#ffffff" d="M 153.835938 86.746094 C 164.007812 88.191406 153.804688 94.402344 154.289062 105.34375 C 154.675781 113.96875 166.613281 128.257812 153.835938 141.257812 C 143.410156 142.253906 150.296875 133.757812 151.039062 129.671875 C 152.96875 119.441406 142.992188 111.039062 146.628906 96.558594 C 147.371094 93.664062 150.492188 87.195312 153.804688 86.746094 Z M 153.835938 86.746094 " fill-opacity="1" fill-rule="nonzero"/></svg>