<svg xmlns="http://www.w3.org/2000/svg" xmlns:xlink="http://www.w3.org/1999/xlink" width="500" zoomAndPan="magnify" viewBox="0 0 375 374.999991" height="500" preserveAspectRatio="xMidYMid meet" version="1.0"><defs><clipPath id="3a047848c9"><path d="M 53 176 L 264 176 L 264 337.585938 L 53 337.585938 Z M 53 176 " clip-rule="nonzero"/></clipPath><clipPath id="53c76f0732"><path d="M 139 37.585938 L 167 37.585938 L 167 142 L 139 142 Z M 139 37.585938 " clip-rule="nonzero"/></clipPath></defs><g clip-path="url(#3a047848c9)"><path fill="#ffffff" d="M 53.550781 176.0625 L 261.53125 176.0625 L 263.453125 177.984375 C 263.816406 220.652344 253.179688 263.378906 230.042969 299.492188 C 226.4375 305.082031 203.480469 335.308594 199.09375 336.449219 C 195.070312 337.472656 120.496094 337.410156 116.46875 336.449219 C 110.277344 335.007812 88.527344 305.140625 84.441406 298.410156 C 62.324219 261.996094 51.449219 218.546875 53.492188 176.125 Z M 53.550781 176.0625 " fill-opacity="1" fill-rule="nonzero"/></g><path fill="#ffffff" d="M 269.164062 183.753906 C 299.507812 183.453125 323.546875 206.167969 320.902344 237.117188 C 318.019531 269.925781 276.734375 293.964844 248.128906 275.457031 C 249.933594 273.773438 254.5625 261.09375 255.222656 260.671875 C 257.085938 259.53125 269.34375 269.265625 286.710938 258.75 C 312.488281 243.125 305.339844 203.523438 268.921875 200.460938 L 269.222656 183.753906 Z M 269.164062 183.753906 " fill-opacity="1" fill-rule="nonzero"/><g clip-path="url(#53c76f0732)"><path fill="#ffffff" d="M 154.265625 37.609375 C 175.660156 40.074219 153.003906 51.3125 155.648438 76.730469 C 157.269531 92.535156 178.84375 118.375 155.347656 141.570312 C 135.820312 143.132812 149.160156 126.96875 150.121094 119.394531 C 152.703125 99.804688 133.835938 84.78125 141.347656 55.9375 C 142.96875 49.808594 148.015625 40.015625 154.207031 37.609375 Z M 154.265625 37.609375 " fill-opacity="1" fill-rule="nonzero"/></g><path fill="#ffffff" d="M 206.789062 47.464844 C 223.855469 49.75 209.914062 62.910156 208.167969 72.34375 C 203.601562 97.222656 225.175781 110.863281 214.71875 138.566406 C 207.808594 156.894531 194.648438 151.664062 195.550781 142.410156 C 195.789062 140.1875 203.421875 131.054688 201.558594 116.691406 C 200.539062 109.058594 190.023438 93.496094 191.703125 74.027344 C 192.304688 66.753906 198.015625 48.546875 206.726562 47.464844 Z M 206.789062 47.464844 " fill-opacity="1" fill-rule="nonzero"/><path fill="#ffffff" d="M 107.15625 47.464844 C 126.144531 50.167969 107.09375 61.769531 107.996094 82.199219 C 108.71875 98.304688 131.011719 124.984375 107.15625 149.261719 C 87.683594 151.125 100.542969 135.261719 101.925781 127.628906 C 105.53125 108.519531 86.902344 92.835938 93.695312 65.792969 C 95.074219 60.386719 100.90625 48.308594 107.09375 47.464844 Z M 107.15625 47.464844 " fill-opacity="1" fill-rule="nonzero"/></svg>