<svg xmlns="http://www.w3.org/2000/svg" xmlns:xlink="http://www.w3.org/1999/xlink" width="500" zoomAndPan="magnify" viewBox="0 0 375 374.999991" height="500" preserveAspectRatio="xMidYMid meet" version="1.0"><defs><clipPath id="d5353f4eaf"><path d="M 78.59375 37 L 297.34375 37 L 297.34375 338 L 78.59375 338 Z M 78.59375 37 " clip-rule="nonzero"/></clipPath><clipPath id="f888af784d"><path d="M 78.59375 139.296875 C 78.59375 91.132812 127.5625 37.5 187.96875 37.5 C 248.375 37.5 297.34375 91.132812 297.34375 139.296875 C 297.34375 268.683594 187.96875 337.5 187.96875 337.5 C 187.96875 337.5 78.59375 272.171875 78.59375 139.296875 Z M 78.59375 139.296875 " clip-rule="nonzero"/></clipPath><clipPath id="6d2a995fc4"><path d="M 0.59375 0.441406 L 219.34375 0.441406 L 219.34375 300.679688 L 0.59375 300.679688 Z M 0.59375 0.441406 " clip-rule="nonzero"/></clipPath><clipPath id="4727669e2a"><path d="M 0.59375 102.296875 C 0.59375 54.132812 49.5625 0.5 109.96875 0.5 C 170.375 0.5 219.34375 54.132812 219.34375 102.296875 C 219.34375 231.683594 109.96875 300.5 109.96875 300.5 C 109.96875 300.5 0.59375 235.171875 0.59375 102.296875 Z M 0.59375 102.296875 " clip-rule="nonzero"/></clipPath><clipPath id="fa2efbc944"><rect x="0" width="220" y="0" height="301"/></clipPath><clipPath id="382e166a84"><path d="M 78.601562 37.503906 L 297.34375 37.503906 L 297.34375 337.496094 L 78.601562 337.496094 Z M 78.601562 37.503906 " clip-rule="nonzero"/></clipPath><clipPath id="8d86af99bc"><path d="M 78.601562 139.296875 C 78.601562 91.136719 127.566406 37.503906 187.972656 37.503906 C 248.375 37.503906 297.34375 91.136719 297.34375 139.296875 C 297.34375 268.679688 187.972656 337.496094 187.972656 337.496094 C 187.972656 337.496094 78.601562 272.167969 78.601562 139.296875 Z M 78.601562 139.296875 " clip-rule="nonzero"/></clipPath></defs><g clip-path="url(#d5353f4eaf)"><g clip-path="url(#f888af784d)"><g transform="matrix(1, 0, 0, 1, 78, 37)"><g clip-path="url(#fa2efbc944)"><g clip-path="url(#6d2a995fc4)"><g clip-path="url(#4727669e2a)"><path fill="#c8b8d9" d="M 219.34375 300.5 L 0.59375 300.5 L 0.59375 0.574219 L 219.34375 0.574219 Z M 219.34375 300.5 " fill-opacity="1" fill-rule="nonzero"/></g></g></g></g></g></g><g clip-path="url(#382e166a84)"><g clip-path="url(#8d86af99bc)"><path stroke-linecap="butt" transform="matrix(-0.75, 0, 0, -0.75, 297.342347, 337.494616)" fill="none" stroke-linejoin="miter" d="M 291.654399 264.263672 C 291.654399 328.477218 226.367936 399.98764 145.826264 399.98764 C 65.289801 399.98764 -0.00187017 328.477218 -0.00187017 264.263672 C -0.00187017 91.753244 145.826264 -0.00197002 145.826264 -0.00197002 C 145.826264 -0.00197002 291.654399 87.102202 291.654399 264.263672 Z M 291.654399 264.263672 " stroke="#c8b8d9" stroke-width="18" stroke-opacity="1" stroke-miterlimit="4"/></g></g><path fill="#ffffff" d="M 185.632812 90.765625 L 185.632812 135.453125 L 207.976562 135.453125 L 207.976562 152.992188 C 210.992188 149.191406 217.359375 146.625 224.734375 146.625 C 235.011719 146.625 243.390625 151.652344 243.390625 157.796875 L 207.976562 157.796875 L 207.976562 176.226562 C 213.117188 178.6875 218.699219 180.136719 224.734375 180.136719 C 246.292969 180.136719 263.832031 162.597656 263.832031 141.039062 L 263.832031 90.765625 Z M 207.976562 132.660156 C 203.394531 132.660156 199.597656 128.859375 199.597656 124.28125 C 199.597656 119.699219 203.394531 115.902344 207.976562 115.902344 C 212.558594 115.902344 216.355469 119.699219 216.355469 124.28125 C 216.355469 128.859375 212.558594 132.660156 207.976562 132.660156 Z M 241.492188 132.660156 C 236.910156 132.660156 233.113281 128.859375 233.113281 124.28125 C 233.113281 119.699219 236.910156 115.902344 241.492188 115.902344 C 246.070312 115.902344 249.871094 119.699219 249.871094 124.28125 C 249.871094 128.859375 246.070312 132.660156 241.492188 132.660156 Z M 241.492188 132.660156 " fill-opacity="1" fill-rule="evenodd"/><path fill="#ffffff" d="M 118.605469 196.894531 C 118.605469 218.457031 136.144531 235.996094 157.703125 235.996094 C 179.265625 235.996094 196.804688 218.457031 196.804688 196.894531 L 196.804688 146.625 L 118.605469 146.625 Z M 157.703125 213.652344 C 147.425781 213.652344 139.046875 208.625 139.046875 202.480469 L 176.25 202.480469 C 176.359375 208.625 167.984375 213.652344 157.703125 213.652344 Z M 174.460938 171.757812 C 179.042969 171.757812 182.839844 175.558594 182.839844 180.136719 C 182.839844 184.71875 179.042969 188.515625 174.460938 188.515625 C 169.882812 188.515625 166.082031 184.71875 166.082031 180.136719 C 166.082031 175.558594 169.882812 171.757812 174.460938 171.757812 Z M 140.949219 171.757812 C 145.527344 171.757812 149.328125 175.558594 149.328125 180.136719 C 149.328125 184.71875 145.527344 188.515625 140.949219 188.515625 C 136.367188 188.515625 132.570312 184.71875 132.570312 180.136719 C 132.570312 175.558594 136.367188 171.757812 140.949219 171.757812 Z M 140.949219 171.757812 " fill-opacity="1" fill-rule="evenodd"/></svg>