<svg xmlns="http://www.w3.org/2000/svg" xmlns:xlink="http://www.w3.org/1999/xlink" width="500" zoomAndPan="magnify" viewBox="0 0 375 374.999991" height="500" preserveAspectRatio="xMidYMid meet" version="1.0"><defs><clipPath id="5bcb563c10"><path d="M 78.117188 37 L 296.867188 37 L 296.867188 338 L 78.117188 338 Z M 78.117188 37 " clip-rule="nonzero"/></clipPath><clipPath id="538788f0ea"><path d="M 78.117188 139.296875 C 78.117188 91.132812 127.085938 37.5 187.492188 37.5 C 247.898438 37.5 296.867188 91.132812 296.867188 139.296875 C 296.867188 268.683594 187.492188 337.5 187.492188 337.5 C 187.492188 337.5 78.117188 272.171875 78.117188 139.296875 Z M 78.117188 139.296875 " clip-rule="nonzero"/></clipPath><clipPath id="d986059c8b"><path d="M 0.117188 0.441406 L 218.867188 0.441406 L 218.867188 300.679688 L 0.117188 300.679688 Z M 0.117188 0.441406 " clip-rule="nonzero"/></clipPath><clipPath id="15e109958d"><path d="M 0.117188 102.296875 C 0.117188 54.132812 49.085938 0.5 109.492188 0.5 C 169.898438 0.5 218.867188 54.132812 218.867188 102.296875 C 218.867188 231.683594 109.492188 300.5 109.492188 300.5 C 109.492188 300.5 0.117188 235.171875 0.117188 102.296875 Z M 0.117188 102.296875 " clip-rule="nonzero"/></clipPath><clipPath id="b0f30616df"><rect x="0" width="219" y="0" height="301"/></clipPath><clipPath id="8cab5196c6"><path d="M 78.125 37.503906 L 296.867188 37.503906 L 296.867188 337.496094 L 78.125 337.496094 Z M 78.125 37.503906 " clip-rule="nonzero"/></clipPath><clipPath id="04dbff8f16"><path d="M 78.125 139.296875 C 78.125 91.136719 127.09375 37.503906 187.496094 37.503906 C 247.898438 37.503906 296.867188 91.136719 296.867188 139.296875 C 296.867188 268.679688 187.496094 337.496094 187.496094 337.496094 C 187.496094 337.496094 78.125 272.167969 78.125 139.296875 Z M 78.125 139.296875 " clip-rule="nonzero"/></clipPath></defs><g clip-path="url(#5bcb563c10)"><g clip-path="url(#538788f0ea)"><g transform="matrix(1, 0, 0, 1, 78, 37)"><g clip-path="url(#b0f30616df)"><g clip-path="url(#d986059c8b)"><g clip-path="url(#15e109958d)"><path fill="#439e77" d="M 218.867188 300.5 L 0.117188 300.5 L 0.117188 0.574219 L 218.867188 0.574219 Z M 218.867188 300.5 " fill-opacity="1" fill-rule="nonzero"/></g></g></g></g></g></g><g clip-path="url(#8cab5196c6)"><g clip-path="url(#04dbff8f16)"><path stroke-linecap="butt" transform="matrix(-0.75, 0, 0, -0.75, 296.867152, 337.494616)" fill="none" stroke-linejoin="miter" d="M 291.656222 264.263672 C 291.656222 328.477218 226.364551 399.98764 145.828088 399.98764 C 65.291624 399.98764 -0.000047059 328.477218 -0.000047059 264.263672 C -0.000047059 91.753244 145.828088 -0.00197002 145.828088 -0.00197002 C 145.828088 -0.00197002 291.656222 87.102202 291.656222 264.263672 Z M 291.656222 264.263672 " stroke="#439e77" stroke-width="18" stroke-opacity="1" stroke-miterlimit="4"/></g></g><path fill="#ffffff" d="M 215.726562 158.648438 L 168.675781 83.367188 L 121.625 158.648438 L 132.730469 158.648438 L 102.804688 205.699219 L 154.5625 205.699219 L 154.5625 233.929688 L 182.792969 233.929688 L 182.792969 205.699219 L 234.546875 205.699219 L 204.625 158.648438 Z M 215.726562 158.648438 " fill-opacity="1" fill-rule="nonzero"/><path fill="#ffffff" d="M 242.265625 158.648438 L 253.367188 158.648438 L 206.316406 83.367188 L 193.050781 104.636719 L 232.667969 168.058594 L 221.75 168.058594 L 245.746094 205.699219 L 272.1875 205.699219 Z M 242.265625 158.648438 " fill-opacity="1" fill-rule="nonzero"/><path fill="#ffffff" d="M 192.203125 215.109375 L 220.433594 215.109375 L 220.433594 233.929688 L 192.203125 233.929688 Z M 192.203125 215.109375 " fill-opacity="1" fill-rule="nonzero"/></svg>