<svg xmlns="http://www.w3.org/2000/svg" xmlns:xlink="http://www.w3.org/1999/xlink" width="500" zoomAndPan="magnify" viewBox="0 0 375 374.999991" height="500" preserveAspectRatio="xMidYMid meet" version="1.0"><defs><clipPath id="894e1ec3e6"><path d="M 78.117188 37 L 296.867188 37 L 296.867188 338 L 78.117188 338 Z M 78.117188 37 " clip-rule="nonzero"/></clipPath><clipPath id="71c6896cfb"><path d="M 78.117188 139.296875 C 78.117188 91.132812 127.085938 37.5 187.492188 37.5 C 247.898438 37.5 296.867188 91.132812 296.867188 139.296875 C 296.867188 268.683594 187.492188 337.5 187.492188 337.5 C 187.492188 337.5 78.117188 272.171875 78.117188 139.296875 Z M 78.117188 139.296875 " clip-rule="nonzero"/></clipPath><clipPath id="7ca7679628"><path d="M 0.117188 0.441406 L 218.867188 0.441406 L 218.867188 300.679688 L 0.117188 300.679688 Z M 0.117188 0.441406 " clip-rule="nonzero"/></clipPath><clipPath id="52323ffaab"><path d="M 0.117188 102.296875 C 0.117188 54.132812 49.085938 0.5 109.492188 0.5 C 169.898438 0.5 218.867188 54.132812 218.867188 102.296875 C 218.867188 231.683594 109.492188 300.5 109.492188 300.5 C 109.492188 300.5 0.117188 235.171875 0.117188 102.296875 Z M 0.117188 102.296875 " clip-rule="nonzero"/></clipPath><clipPath id="20a63a7fa2"><rect x="0" width="219" y="0" height="301"/></clipPath><clipPath id="b775cdddbb"><path d="M 78.125 37.503906 L 296.867188 37.503906 L 296.867188 337.496094 L 78.125 337.496094 Z M 78.125 37.503906 " clip-rule="nonzero"/></clipPath><clipPath id="15bc045752"><path d="M 78.125 139.296875 C 78.125 91.136719 127.09375 37.503906 187.496094 37.503906 C 247.898438 37.503906 296.867188 91.136719 296.867188 139.296875 C 296.867188 268.679688 187.496094 337.496094 187.496094 337.496094 C 187.496094 337.496094 78.125 272.167969 78.125 139.296875 Z M 78.125 139.296875 " clip-rule="nonzero"/></clipPath><clipPath id="68efb3f6c0"><path d="M 112.546875 141 L 204 141 L 204 233.449219 L 112.546875 233.449219 Z M 112.546875 141 " clip-rule="nonzero"/></clipPath><clipPath id="ea1baa01be"><path d="M 177 83.449219 L 262.546875 83.449219 L 262.546875 169 L 177 169 Z M 177 83.449219 " clip-rule="nonzero"/></clipPath></defs><g clip-path="url(#894e1ec3e6)"><g clip-path="url(#71c6896cfb)"><g transform="matrix(1, 0, 0, 1, 78, 37)"><g clip-path="url(#20a63a7fa2)"><g clip-path="url(#7ca7679628)"><g clip-path="url(#52323ffaab)"><path fill="#b4b4b4" d="M 218.867188 300.5 L 0.117188 300.5 L 0.117188 0.574219 L 218.867188 0.574219 Z M 218.867188 300.5 " fill-opacity="1" fill-rule="nonzero"/></g></g></g></g></g></g><g clip-path="url(#b775cdddbb)"><g clip-path="url(#15bc045752)"><path stroke-linecap="butt" transform="matrix(-0.75, 0, 0, -0.75, 296.867152, 337.494616)" fill="none" stroke-linejoin="miter" d="M 291.656222 264.263672 C 291.656222 328.477218 226.364551 399.98764 145.828088 399.98764 C 65.291624 399.98764 -0.000047059 328.477218 -0.000047059 264.263672 C -0.000047059 91.753244 145.828088 -0.00197002 145.828088 -0.00197002 C 145.828088 -0.00197002 291.656222 87.102202 291.656222 264.263672 Z M 291.656222 264.263672 " stroke="#b4b4b4" stroke-width="18" stroke-opacity="1" stroke-miterlimit="4"/></g></g><g clip-path="url(#68efb3f6c0)"><path fill="#ffffff" d="M 203.792969 195.511719 L 203.792969 179.5625 L 190.414062 177.5 C 189.847656 175.703125 189.074219 173.886719 188.117188 172.113281 L 195.960938 161.199219 L 184.632812 149.378906 L 173.59375 157.316406 C 171.847656 156.429688 170.042969 155.75 168.25 155.128906 L 166.167969 141.945312 L 150.171875 141.945312 L 148.113281 154.992188 C 146.3125 155.558594 144.496094 156.335938 142.71875 157.292969 L 131.757812 149.414062 L 120.386719 160.789062 L 127.941406 171.777344 C 127.035156 173.554688 126.34375 175.394531 125.714844 177.21875 L 112.546875 179.640625 L 112.546875 195.492188 L 125.578125 197.890625 C 126.144531 199.703125 126.921875 201.527344 127.882812 203.316406 L 119.988281 213.953125 L 131.386719 225.351562 L 142.378906 217.796875 C 144.144531 218.695312 145.964844 219.382812 147.765625 220.007812 L 149.84375 233.191406 L 165.769531 233.191406 L 168.171875 220.160156 C 169.988281 219.589844 171.828125 218.808594 173.621094 217.839844 L 184.585938 225.722656 L 195.996094 214.308594 L 188.09375 203.320312 C 188.988281 201.554688 189.671875 199.738281 190.292969 197.933594 Z M 158.167969 200.605469 C 151 200.605469 145.132812 194.738281 145.132812 187.570312 C 145.132812 180.398438 151 174.535156 158.167969 174.535156 C 165.339844 174.535156 171.203125 180.398438 171.203125 187.570312 C 171.203125 194.738281 165.339844 200.605469 158.167969 200.605469 Z M 158.167969 200.605469 " fill-opacity="1" fill-rule="nonzero"/></g><g clip-path="url(#ea1baa01be)"><path fill="#ffffff" d="M 251.535156 128.488281 C 251.640625 126.792969 251.640625 125.160156 251.535156 123.464844 L 262.246094 116.898438 L 256.640625 102.636719 L 244.207031 105.402344 C 243.132812 104.121094 241.953125 102.9375 240.671875 101.863281 L 243.421875 89.835938 L 229.246094 83.757812 L 222.65625 94.167969 C 220.949219 94 219.164062 93.925781 217.5 94.074219 L 211.007812 83.488281 L 196.804688 89.070312 L 199.28125 101.445312 C 198.296875 102.441406 197.214844 103.550781 196.113281 104.769531 L 183.945312 101.988281 L 177.894531 116.105469 L 188.320312 123.054688 C 188.207031 124.777344 188.207031 126.4375 188.316406 128.160156 L 177.605469 134.726562 L 183.183594 148.933594 L 195.285156 146.511719 C 196.363281 147.804688 197.554688 149 198.847656 150.085938 L 196.097656 162.113281 L 210.210938 168.164062 L 217.164062 157.738281 C 218.890625 157.847656 220.539062 157.855469 222.273438 157.742188 L 228.835938 168.457031 L 243.074219 162.863281 L 240.3125 149.78125 C 241.59375 148.714844 242.773438 147.539062 243.84375 146.265625 L 256.207031 149.359375 L 262.320312 135.089844 Z M 220.085938 138.6875 C 212.886719 138.6875 207.050781 132.847656 207.050781 125.652344 C 207.050781 118.453125 212.886719 112.617188 220.085938 112.617188 C 227.285156 112.617188 233.121094 118.453125 233.121094 125.652344 C 233.121094 132.847656 227.285156 138.6875 220.085938 138.6875 Z M 220.085938 138.6875 " fill-opacity="1" fill-rule="nonzero"/></g></svg>