<svg xmlns="http://www.w3.org/2000/svg" xmlns:xlink="http://www.w3.org/1999/xlink" width="500" zoomAndPan="magnify" viewBox="0 0 375 374.999991" height="500" preserveAspectRatio="xMidYMid meet" version="1.0"><defs><clipPath id="05ea6f61c5"><path d="M 37.5 154 L 221 154 L 221 337.5 L 37.5 337.5 Z M 37.5 154 " clip-rule="nonzero"/></clipPath><clipPath id="f3e05bcd90"><path d="M 167 37.5 L 337.5 37.5 L 337.5 208 L 167 208 Z M 167 37.5 " clip-rule="nonzero"/></clipPath></defs><g clip-path="url(#05ea6f61c5)"><path fill="#ffffff" d="M 220.109375 261.761719 L 220.109375 229.84375 L 193.335938 225.71875 C 192.203125 222.125 190.648438 218.492188 188.738281 214.945312 L 204.4375 193.09375 L 181.765625 169.441406 L 159.671875 185.328125 C 156.175781 183.554688 152.570312 182.191406 148.976562 180.953125 L 144.816406 154.566406 L 112.800781 154.566406 L 108.679688 180.679688 C 105.078125 181.8125 101.4375 183.363281 97.886719 185.28125 L 75.945312 169.511719 L 53.191406 192.273438 L 68.308594 214.265625 C 66.496094 217.824219 65.113281 221.503906 63.855469 225.15625 L 37.5 230.003906 L 37.5 261.730469 L 63.582031 266.53125 C 64.714844 270.148438 66.265625 273.800781 68.191406 277.382812 L 52.394531 298.667969 L 75.207031 321.484375 L 97.207031 306.363281 C 100.742188 308.164062 104.378906 309.542969 107.988281 310.785156 L 112.140625 337.175781 L 144.011719 337.175781 L 148.820312 311.09375 C 152.457031 309.953125 156.136719 308.386719 159.722656 306.449219 L 181.667969 322.226562 L 204.503906 299.386719 L 188.695312 277.394531 C 190.480469 273.859375 191.851562 270.222656 193.09375 266.609375 Z M 128.804688 271.957031 C 114.457031 271.957031 102.71875 260.21875 102.71875 245.871094 C 102.71875 231.523438 114.457031 219.78125 128.804688 219.78125 C 143.152344 219.78125 154.890625 231.523438 154.890625 245.871094 C 154.890625 260.21875 143.152344 271.957031 128.804688 271.957031 Z M 128.804688 271.957031 " fill-opacity="1" fill-rule="nonzero"/></g><g clip-path="url(#f3e05bcd90)"><path fill="#ffffff" d="M 315.652344 127.636719 C 315.867188 124.246094 315.867188 120.976562 315.652344 117.582031 L 337.089844 104.4375 L 325.871094 75.898438 L 300.984375 81.429688 C 298.839844 78.867188 296.476562 76.5 293.914062 74.355469 L 299.417969 50.28125 L 271.050781 38.121094 L 257.855469 58.949219 C 254.445312 58.617188 250.871094 58.46875 247.539062 58.765625 L 234.546875 37.578125 L 206.125 48.75 L 211.082031 73.511719 C 209.105469 75.507812 206.949219 77.734375 204.742188 80.171875 L 180.390625 74.601562 L 168.28125 102.855469 L 189.144531 116.757812 C 188.914062 120.207031 188.914062 123.535156 189.136719 126.976562 L 167.699219 140.121094 L 178.863281 168.546875 L 203.082031 163.703125 C 205.238281 166.292969 207.625 168.683594 210.214844 170.855469 L 204.710938 194.929688 L 232.957031 207.03125 L 246.867188 186.167969 C 250.324219 186.390625 253.625 186.40625 257.09375 186.183594 L 270.226562 207.625 L 298.722656 196.429688 L 293.199219 170.25 C 295.761719 168.117188 298.113281 165.761719 300.261719 163.214844 L 325.003906 169.402344 L 337.238281 140.851562 Z M 252.71875 148.042969 C 238.3125 148.042969 226.628906 136.363281 226.628906 121.957031 C 226.628906 107.550781 238.3125 95.871094 252.71875 95.871094 C 267.125 95.871094 278.804688 107.550781 278.804688 121.957031 C 278.804688 136.363281 267.125 148.042969 252.71875 148.042969 Z M 252.71875 148.042969 " fill-opacity="1" fill-rule="nonzero"/></g></svg>