<svg xmlns="http://www.w3.org/2000/svg" xmlns:xlink="http://www.w3.org/1999/xlink" width="500" zoomAndPan="magnify" viewBox="0 0 375 374.999991" height="500" preserveAspectRatio="xMidYMid meet" version="1.0"><defs><clipPath id="ab42c6d9e7"><path d="M 78.125 37.503906 L 296.867188 37.503906 L 296.867188 337.496094 L 78.125 337.496094 Z M 78.125 37.503906 " clip-rule="nonzero"/></clipPath><clipPath id="7c82e97d1c"><path d="M 78.125 139.296875 C 78.125 91.136719 127.09375 37.503906 187.496094 37.503906 C 247.898438 37.503906 296.867188 91.136719 296.867188 139.296875 C 296.867188 268.679688 187.496094 337.496094 187.496094 337.496094 C 187.496094 337.496094 78.125 272.167969 78.125 139.296875 Z M 78.125 139.296875 " clip-rule="nonzero"/></clipPath></defs><g clip-path="url(#ab42c6d9e7)"><g clip-path="url(#7c82e97d1c)"><path stroke-linecap="butt" transform="matrix(-0.75, 0, 0, -0.75, 296.867152, 337.494616)" fill="none" stroke-linejoin="miter" d="M 291.656222 264.263672 C 291.656222 328.477218 226.364551 399.98764 145.828088 399.98764 C 65.291624 399.98764 -0.000047059 328.477218 -0.000047059 264.263672 C -0.000047059 91.753244 145.828088 -0.00197002 145.828088 -0.00197002 C 145.828088 -0.00197002 291.656222 87.102202 291.656222 264.263672 Z M 291.656222 264.263672 " stroke="#9ac1e8" stroke-width="18" stroke-opacity="1" stroke-miterlimit="4"/></g></g><path fill="#9ac1e8" d="M 150.152344 221.96875 C 141.9375 221.96875 135.292969 228.691406 135.292969 236.90625 C 135.292969 245.121094 141.9375 251.84375 150.152344 251.84375 C 158.371094 251.84375 165.089844 245.121094 165.089844 236.90625 C 165.089844 228.691406 158.371094 221.96875 150.152344 221.96875 Z M 105.339844 102.46875 L 105.339844 117.40625 L 120.277344 117.40625 L 147.167969 174.09375 L 137.082031 192.390625 C 135.890625 194.484375 135.214844 196.949219 135.214844 199.5625 C 135.214844 207.777344 141.9375 214.5 150.152344 214.5 L 239.777344 214.5 L 239.777344 199.5625 L 153.289062 199.5625 C 152.246094 199.5625 151.421875 198.742188 151.421875 197.695312 L 151.648438 196.796875 L 158.371094 184.625 L 214.011719 184.625 C 219.613281 184.625 224.542969 181.5625 227.082031 176.933594 L 253.820312 128.460938 C 254.417969 127.414062 254.714844 126.144531 254.714844 124.875 C 254.714844 120.765625 251.355469 117.40625 247.246094 117.40625 L 136.785156 117.40625 L 129.765625 102.46875 Z M 224.839844 221.96875 C 216.625 221.96875 209.980469 228.691406 209.980469 236.90625 C 209.980469 245.121094 216.625 251.84375 224.839844 251.84375 C 233.058594 251.84375 239.777344 245.121094 239.777344 236.90625 C 239.777344 228.691406 233.058594 221.96875 224.839844 221.96875 Z M 224.839844 221.96875 " fill-opacity="1" fill-rule="nonzero"/></svg>