<svg xmlns="http://www.w3.org/2000/svg" xmlns:xlink="http://www.w3.org/1999/xlink" width="2000" zoomAndPan="magnify" viewBox="0 0 1500 1499.999933" height="2000" preserveAspectRatio="xMidYMid meet" version="1.0"><defs><g/><clipPath id="91be69a62a"><rect x="0" width="574" y="0" height="366"/></clipPath><clipPath id="7c00f26f01"><rect x="0" width="441" y="0" height="368"/></clipPath></defs><g transform="matrix(1, 0, 0, 1, 716, 567)"><g clip-path="url(#91be69a62a)"><g fill="#9ac1e7" fill-opacity="1"><g transform="translate(0.561552, 288.284616)"><g><path d="M 51.09375 -217.15625 C 56.082031 -219.226562 60.238281 -220.265625 63.5625 -220.265625 C 67.09375 -220.265625 70.101562 -218.8125 72.59375 -215.90625 C 74.875 -213.832031 76.015625 -211.335938 76.015625 -208.421875 C 76.015625 -203.648438 73.832031 -200.429688 69.46875 -198.765625 C 60.332031 -195.234375 54 -192.117188 50.46875 -189.421875 C 46.726562 -186.929688 44.859375 -183.921875 44.859375 -180.390625 C 44.859375 -174.992188 51.300781 -162.945312 64.1875 -144.25 C 90.976562 -104.164062 104.375 -73.320312 104.375 -51.71875 C 104.375 -47.5625 104.0625 -43.613281 103.4375 -39.875 C 100.53125 -24.71875 92.640625 -14.226562 79.765625 -8.40625 C 72.703125 -4.875 65.84375 -3.109375 59.1875 -3.109375 C 53.582031 -3.109375 47.457031 -4.148438 40.8125 -6.234375 C 32.09375 -8.929688 24.507812 -14.226562 18.0625 -22.125 C 11.832031 -30.21875 8.71875 -37.484375 8.71875 -43.921875 C 8.71875 -50.367188 11.832031 -53.898438 18.0625 -54.515625 L 19.3125 -54.515625 C 22.632812 -54.515625 25.546875 -52.75 28.046875 -49.21875 C 30.117188 -45.6875 33.851562 -41.117188 39.25 -35.515625 C 42.164062 -32.191406 44.765625 -30.113281 47.046875 -29.28125 C 49.117188 -28.25 52.335938 -27.734375 56.703125 -27.734375 C 63.765625 -27.734375 69.375 -29.804688 73.53125 -33.953125 C 76.851562 -37.273438 78.515625 -40.910156 78.515625 -44.859375 C 78.515625 -45.484375 78.304688 -48.597656 77.890625 -54.203125 C 77.265625 -63.140625 74.359375 -73.113281 69.171875 -84.125 C 64.179688 -95.332031 55.457031 -110.597656 43 -129.921875 C 30.945312 -148.816406 24.09375 -160.238281 22.4375 -164.1875 C 20.351562 -168.757812 19.3125 -173.328125 19.3125 -177.890625 C 19.3125 -186.203125 22.222656 -193.992188 28.046875 -201.265625 C 33.859375 -208.535156 41.539062 -213.832031 51.09375 -217.15625 Z M 51.09375 -217.15625 "/></g></g></g><g fill="#0667a7" fill-opacity="1"><g transform="translate(113.363799, 288.284616)"><g><path d="M 40.5 -168.234375 C 45.695312 -170.941406 50.785156 -172.5 55.765625 -172.90625 C 60.753906 -172.90625 66.675781 -171.035156 73.53125 -167.296875 C 80.175781 -163.359375 85.578125 -159 89.734375 -154.21875 C 93.460938 -149.644531 95.328125 -146.53125 95.328125 -144.875 C 95.328125 -143.832031 94.601562 -141.960938 93.15625 -139.265625 C 90.457031 -134.691406 87.34375 -132.40625 83.8125 -132.40625 C 80.28125 -132.40625 75.914062 -135.003906 70.71875 -140.203125 C 65.945312 -144.972656 61.585938 -147.359375 57.640625 -147.359375 C 53.898438 -147.359375 50.265625 -144.554688 46.734375 -138.953125 C 42.578125 -133.140625 39.773438 -126.804688 38.328125 -119.953125 C 36.867188 -113.097656 35.828125 -102.085938 35.203125 -86.921875 C 34.992188 -83.390625 34.890625 -78.71875 34.890625 -72.90625 C 34.890625 -53.175781 38.523438 -39.46875 45.796875 -31.78125 C 50.367188 -27.414062 56.289062 -25.234375 63.5625 -25.234375 C 70.832031 -25.234375 77.164062 -27.207031 82.5625 -31.15625 C 87.957031 -34.894531 92.113281 -36.765625 95.03125 -36.765625 C 98.351562 -36.765625 101.257812 -34.789062 103.75 -30.84375 C 105.613281 -28.351562 106.546875 -26.484375 106.546875 -25.234375 C 106.546875 -24.398438 105.507812 -22.320312 103.4375 -19 C 99.28125 -13.601562 93.253906 -9.242188 85.359375 -5.921875 C 77.679688 -2.597656 69.582031 -0.9375 61.0625 -0.9375 C 52.550781 -0.9375 45.382812 -2.390625 39.5625 -5.296875 C 20.875 -14.222656 10.488281 -34.265625 8.40625 -65.421875 C 7.988281 -71.859375 7.78125 -76.535156 7.78125 -79.453125 C 7.78125 -100.015625 10.796875 -118.707031 16.828125 -135.53125 C 23.054688 -152.351562 30.945312 -163.253906 40.5 -168.234375 Z M 40.5 -168.234375 "/></g></g></g><g fill="#ea6244" fill-opacity="1"><g transform="translate(228.652783, 288.284616)"><g><path d="M 71.03125 -100.625 C 66.875 -103.332031 61.578125 -104.6875 55.140625 -104.6875 C 50.367188 -104.6875 46.734375 -103.75 44.234375 -101.875 C 36.554688 -95.644531 32.71875 -87.648438 32.71875 -77.890625 C 32.71875 -71.453125 34.484375 -65.738281 38.015625 -60.75 C 41.546875 -55.769531 46.320312 -52.65625 52.34375 -51.40625 C 53.382812 -51.195312 54.941406 -51.09375 57.015625 -51.09375 C 64.492188 -51.09375 70.722656 -53.894531 75.703125 -59.5 C 80.484375 -65.320312 82.875 -71.972656 82.875 -79.453125 C 82.875 -88.585938 78.925781 -95.644531 71.03125 -100.625 Z M 50.15625 -128.359375 C 52.65625 -128.773438 54.734375 -128.984375 56.390625 -128.984375 C 63.242188 -128.984375 70.410156 -127.21875 77.890625 -123.6875 C 85.367188 -120.363281 91.285156 -116.003906 95.640625 -110.609375 C 103.535156 -101.460938 107.484375 -90.765625 107.484375 -78.515625 C 107.484375 -75.816406 107.378906 -73.632812 107.171875 -71.96875 C 106.335938 -59.09375 101.875 -48.5 93.78125 -40.1875 C 85.46875 -31.882812 75.082031 -27.210938 62.625 -26.171875 C 61.789062 -26.171875 60.644531 -26.066406 59.1875 -25.859375 L 56.390625 -25.859375 C 43.515625 -25.859375 32.40625 -30.632812 23.0625 -40.1875 C 13.082031 -50.15625 8.09375 -62.828125 8.09375 -78.203125 C 8.09375 -86.097656 9.550781 -93.054688 12.46875 -99.078125 C 14.539062 -104.265625 18.691406 -109.867188 24.921875 -115.890625 C 31.359375 -121.710938 36.445312 -125.039062 40.1875 -125.875 C 40.8125 -126.28125 41.851562 -126.585938 43.3125 -126.796875 C 44.550781 -127.210938 45.796875 -127.523438 47.046875 -127.734375 C 48.285156 -128.148438 49.320312 -128.359375 50.15625 -128.359375 Z M 50.15625 -128.359375 "/></g></g></g><g fill="#fbaaa8" fill-opacity="1"><g transform="translate(343.635714, 288.284616)"><g><path d="M 11.21875 -132.40625 C 13.707031 -135.3125 16.195312 -136.765625 18.6875 -136.765625 C 25.332031 -136.765625 29.488281 -129.082031 31.15625 -113.71875 C 31.570312 -110.394531 32.09375 -105.304688 32.71875 -98.453125 C 34.582031 -99.703125 38.113281 -101.882812 43.3125 -105 C 56.394531 -113.09375 68.546875 -117.140625 79.765625 -117.140625 C 96.796875 -117.140625 107.382812 -108.109375 111.53125 -90.046875 C 112.78125 -84.222656 113.40625 -80.691406 113.40625 -79.453125 C 113.40625 -76.953125 112.472656 -74.457031 110.609375 -71.96875 C 108.523438 -68.4375 105.71875 -66.671875 102.1875 -66.671875 L 99.390625 -66.671875 C 95.859375 -66.878906 93.46875 -68.019531 92.21875 -70.09375 C 90.96875 -72.382812 89.515625 -77.472656 87.859375 -85.359375 C 87.023438 -89.304688 85.363281 -91.28125 82.875 -91.28125 C 82.457031 -91.28125 80.585938 -91.070312 77.265625 -90.65625 C 73.109375 -90.039062 66.359375 -87.550781 57.015625 -83.1875 C 47.460938 -78.820312 40.921875 -75.1875 37.390625 -72.28125 C 36.140625 -71.03125 35.515625 -67.394531 35.515625 -61.375 C 35.515625 -54.3125 35.722656 -47.976562 36.140625 -42.375 C 36.554688 -33.019531 36.765625 -27.304688 36.765625 -25.234375 C 36.765625 -17.753906 35.929688 -12.976562 34.265625 -10.90625 C 32.609375 -8.820312 29.597656 -7.78125 25.234375 -7.78125 C 20.660156 -7.78125 17.648438 -9.753906 16.203125 -13.703125 C 14.742188 -17.441406 12.976562 -27.515625 10.90625 -43.921875 C 8.625 -64.078125 7.484375 -82.773438 7.484375 -100.015625 C 7.484375 -118.703125 8.726562 -129.5 11.21875 -132.40625 Z M 11.21875 -132.40625 "/></g></g></g><g fill="#439e77" fill-opacity="1"><g transform="translate(464.223362, 288.284616)"><g><path d="M 59.1875 -138.953125 C 57.320312 -140.410156 54.832031 -141.140625 51.71875 -141.140625 C 48.8125 -141.140625 46.421875 -140.515625 44.546875 -139.265625 C 42.890625 -138.222656 41.125 -136.039062 39.25 -132.71875 C 37.59375 -129.394531 36.765625 -126.488281 36.765625 -124 C 36.765625 -122.332031 37.59375 -121.5 39.25 -121.5 C 41.539062 -121.5 46.21875 -122.851562 53.28125 -125.5625 C 58.675781 -127.632812 61.375 -130.851562 61.375 -135.21875 C 61.375 -136.875 60.644531 -138.117188 59.1875 -138.953125 Z M 42.375 -166.375 C 45.28125 -166.988281 48.082031 -167.296875 50.78125 -167.296875 C 60.125 -167.296875 68.222656 -164.078125 75.078125 -157.640625 C 81.929688 -151.203125 85.359375 -143.519531 85.359375 -134.59375 C 85.359375 -125.25 81.726562 -117.351562 74.46875 -110.90625 C 67.195312 -104.46875 57.117188 -100.210938 44.234375 -98.140625 C 41.953125 -97.929688 38.421875 -97.410156 33.640625 -96.578125 C 33.640625 -92.835938 33.742188 -85.257812 33.953125 -73.84375 C 34.160156 -60.34375 35.097656 -50.472656 36.765625 -44.234375 C 38.421875 -38.210938 41.535156 -33.125 46.109375 -28.96875 C 50.890625 -25.4375 54.941406 -23.671875 58.265625 -23.671875 C 62.003906 -23.671875 67.300781 -25.4375 74.15625 -28.96875 C 80.800781 -32.707031 85.578125 -34.578125 88.484375 -34.578125 C 91.597656 -34.578125 94.398438 -32.601562 96.890625 -28.65625 C 98.554688 -25.957031 99.390625 -24.09375 99.390625 -23.0625 C 99.390625 -21.8125 98.347656 -19.734375 96.265625 -16.828125 C 92.523438 -11.835938 87.125 -7.890625 80.0625 -4.984375 C 72.800781 -2.078125 65.222656 -0.625 57.328125 -0.625 C 49.222656 -0.625 42.367188 -2.078125 36.765625 -4.984375 C 27.003906 -10.179688 19.941406 -18.175781 15.578125 -28.96875 C 11.421875 -39.769531 8.925781 -56.285156 8.09375 -78.515625 C 8.09375 -79.960938 7.988281 -82.140625 7.78125 -85.046875 L 7.78125 -91.28125 C 7.78125 -114.75 10.484375 -132.300781 15.890625 -143.9375 C 21.492188 -155.78125 30.320312 -163.257812 42.375 -166.375 Z M 42.375 -166.375 "/></g></g></g></g></g><g transform="matrix(1, 0, 0, 1, 275, 566)"><g clip-path="url(#7c00f26f01)"><g fill="#ea6244" fill-opacity="1"><g transform="translate(0.0943956, 289.284613)"><g><path d="M 59.5 -93.78125 C 54.3125 -100.007812 48.601562 -104.785156 42.375 -108.109375 C 40.289062 -109.359375 37.175781 -111.125 33.03125 -113.40625 L 33.03125 -91.90625 C 33.03125 -76.332031 32.507812 -59.820312 31.46875 -42.375 C 31.257812 -36.144531 30.738281 -26.796875 29.90625 -14.328125 C 31.570312 -14.535156 35 -15.054688 40.1875 -15.890625 C 46.414062 -16.929688 52.648438 -19.628906 58.890625 -23.984375 C 65.328125 -28.140625 69.789062 -32.816406 72.28125 -38.015625 C 74.976562 -42.785156 76.328125 -48.179688 76.328125 -54.203125 C 76.328125 -67.910156 70.71875 -81.101562 59.5 -93.78125 Z M 49.53125 -186.625 C 46.832031 -189.113281 43.40625 -191.085938 39.25 -192.546875 C 37.800781 -193.160156 35.726562 -193.988281 33.03125 -195.03125 L 33.03125 -171.046875 C 33.03125 -161.285156 33.234375 -155.050781 33.640625 -152.34375 C 33.847656 -149.851562 34.472656 -148.609375 35.515625 -148.609375 C 35.929688 -148.816406 36.554688 -149.023438 37.390625 -149.234375 C 40.710938 -151.097656 44.140625 -154.316406 47.671875 -158.890625 C 51.617188 -164.085938 53.59375 -169.59375 53.59375 -175.40625 C 53.59375 -180.382812 52.238281 -184.125 49.53125 -186.625 Z M 9.34375 -218.09375 C 9.96875 -219.539062 13.082031 -220.265625 18.6875 -220.265625 C 27.207031 -220.265625 35.519531 -219.019531 43.625 -216.53125 C 55.664062 -213.207031 64.800781 -207.910156 71.03125 -200.640625 C 77.46875 -193.367188 80.6875 -185.269531 80.6875 -176.34375 C 80.6875 -163.875 74.976562 -151.828125 63.5625 -140.203125 C 61.269531 -137.703125 57.84375 -134.171875 53.28125 -129.609375 C 54.519531 -128.773438 57.21875 -127.113281 61.375 -124.625 C 65.738281 -121.925781 70.929688 -117.253906 76.953125 -110.609375 C 82.972656 -104.160156 87.851562 -98.03125 91.59375 -92.21875 C 94.707031 -87.03125 97.410156 -80.59375 99.703125 -72.90625 C 101.984375 -65.21875 103.125 -58.15625 103.125 -51.71875 C 103.125 -49.4375 103.019531 -47.773438 102.8125 -46.734375 C 101.15625 -35.097656 96.066406 -24.503906 87.546875 -14.953125 C 79.023438 -5.398438 68.640625 1.035156 56.390625 4.359375 C 49.953125 6.640625 42.164062 7.78125 33.03125 7.78125 C 22.644531 7.78125 15.789062 6.328125 12.46875 3.421875 C 11.21875 2.597656 9.554688 1.25 7.484375 -0.625 C 7.484375 -18.488281 7.582031 -54.316406 7.78125 -108.109375 C 8.195312 -180.597656 8.71875 -217.257812 9.34375 -218.09375 Z M 9.34375 -218.09375 "/></g></g></g><g fill="#fbaaa8" fill-opacity="1"><g transform="translate(111.653272, 289.284613)"><g><path d="M 76.328125 -25.546875 L 76.328125 -45.796875 C 74.671875 -45.796875 71.554688 -45.691406 66.984375 -45.484375 C 56.597656 -45.273438 47.769531 -43.300781 40.5 -39.5625 C 37.382812 -37.695312 35.828125 -35.929688 35.828125 -34.265625 C 35.828125 -31.566406 38.320312 -29.492188 43.3125 -28.046875 C 48.289062 -26.378906 54.832031 -25.546875 62.9375 -25.546875 Z M 11.21875 -149.546875 C 12.875 -151.203125 18.6875 -152.03125 28.65625 -152.03125 C 41.539062 -152.03125 52.132812 -150.890625 60.4375 -148.609375 C 68.539062 -146.328125 75.8125 -141.863281 82.25 -135.21875 C 88.6875 -128.570312 93.253906 -120.882812 95.953125 -112.15625 C 98.867188 -103.644531 100.328125 -83.394531 100.328125 -51.40625 C 100.328125 -28.144531 99.804688 -13.296875 98.765625 -6.859375 C 97.722656 -0.210938 95.332031 3.109375 91.59375 3.109375 C 90.96875 3.109375 89.410156 2.90625 86.921875 2.5 C 86.085938 2.289062 76.84375 1.25 59.1875 -0.625 C 47.144531 -1.664062 37.175781 -3.535156 29.28125 -6.234375 C 15.363281 -12.046875 8.40625 -20.976562 8.40625 -33.03125 C 8.40625 -45.488281 15.15625 -55.039062 28.65625 -61.6875 C 33.226562 -63.96875 39.566406 -66.046875 47.671875 -67.921875 C 55.554688 -69.785156 62.203125 -70.71875 67.609375 -70.71875 L 74.765625 -70.71875 C 74.566406 -73.625 74.15625 -79.335938 73.53125 -87.859375 C 72.28125 -102.398438 68.75 -112.472656 62.9375 -118.078125 C 57.113281 -123.890625 46.414062 -127.523438 30.84375 -128.984375 C 19.207031 -130.234375 12.769531 -131.476562 11.53125 -132.71875 C 9.65625 -134.175781 8.71875 -137.085938 8.71875 -141.453125 C 8.71875 -145.179688 9.550781 -147.878906 11.21875 -149.546875 Z M 11.21875 -149.546875 "/></g></g></g><g fill="#f0c13f" fill-opacity="1"><g transform="translate(218.850794, 289.284613)"><g><path d="M 52.03125 -78.828125 C 47.664062 -81.109375 43.507812 -82.25 39.5625 -82.25 L 33.953125 -82.25 L 33.953125 -32.40625 C 34.992188 -32.613281 37.070312 -33.128906 40.1875 -33.953125 C 45.175781 -35.203125 50.160156 -37.28125 55.140625 -40.1875 C 60.335938 -42.882812 63.351562 -45.273438 64.1875 -47.359375 C 65.21875 -50.472656 65.734375 -53.484375 65.734375 -56.390625 C 65.734375 -66.773438 61.164062 -74.253906 52.03125 -78.828125 Z M 11.53125 -217.15625 C 13.1875 -219.226562 16.195312 -220.265625 20.5625 -220.265625 C 24.507812 -220.265625 27.3125 -219.332031 28.96875 -217.46875 C 30.632812 -215.800781 31.46875 -208.53125 31.46875 -195.65625 C 31.46875 -180.488281 31.988281 -162.519531 33.03125 -141.75 C 33.851562 -126.175781 34.472656 -116.519531 34.890625 -112.78125 C 35.515625 -109.039062 36.660156 -107.171875 38.328125 -107.171875 C 44.347656 -107.171875 51.097656 -105.40625 58.578125 -101.875 C 66.046875 -98.34375 72.273438 -94.191406 77.265625 -89.421875 C 87.648438 -79.035156 92.84375 -67.921875 92.84375 -56.078125 C 92.84375 -45.066406 88.171875 -35.304688 78.828125 -26.796875 C 69.679688 -18.066406 57.007812 -12.457031 40.8125 -9.96875 C 37.488281 -9.550781 34.789062 -9.34375 32.71875 -9.34375 C 21.5 -9.34375 14.851562 -12.148438 12.78125 -17.765625 C 9.25 -26.898438 7.484375 -65.425781 7.484375 -133.34375 C 7.484375 -186.3125 8.832031 -214.25 11.53125 -217.15625 Z M 11.53125 -217.15625 "/></g></g></g><g fill="#439e77" fill-opacity="1"><g transform="translate(320.46272, 289.284613)"><g><path d="M 89.109375 -141.75 C 91.597656 -144.25 94.398438 -145.5 97.515625 -145.5 C 100.835938 -145.5 103.742188 -144.25 106.234375 -141.75 C 107.691406 -139.882812 108.734375 -135.003906 109.359375 -127.109375 C 109.984375 -119.222656 110.5 -101.675781 110.90625 -74.46875 C 111.113281 -64.488281 111.21875 -52.335938 111.21875 -38.015625 C 111.21875 -17.859375 110.597656 -3.628906 109.359375 4.671875 C 102.503906 41.847656 81.210938 63.242188 45.484375 68.859375 C 39.671875 69.679688 35.929688 70.09375 34.265625 70.09375 C 26.796875 70.09375 22.332031 67.601562 20.875 62.625 C 20.457031 61.582031 20.25 60.023438 20.25 57.953125 C 20.25 51.304688 25.960938 47.359375 37.390625 46.109375 C 56.492188 44.242188 69.785156 35.9375 77.265625 21.1875 C 80.585938 14.75 82.5625 9.035156 83.1875 4.046875 C 83.8125 -0.929688 84.332031 -14.640625 84.75 -37.078125 L 85.671875 -81.9375 C 84.429688 -81.726562 81.941406 -81.101562 78.203125 -80.0625 C 73.421875 -78.613281 66.984375 -77.890625 58.890625 -77.890625 C 47.878906 -77.890625 39.671875 -79.238281 34.265625 -81.9375 C 26.171875 -85.675781 19.835938 -91.597656 15.265625 -99.703125 C 10.691406 -107.796875 8.40625 -117.140625 8.40625 -127.734375 C 8.40625 -132.097656 8.71875 -135.109375 9.34375 -136.765625 C 9.96875 -138.429688 11.210938 -139.890625 13.078125 -141.140625 C 15.367188 -142.378906 17.550781 -143 19.625 -143 C 25.4375 -143 28.863281 -140.195312 29.90625 -134.59375 C 31.78125 -125.457031 33.546875 -119.222656 35.203125 -115.890625 C 36.660156 -112.566406 38.738281 -109.972656 41.4375 -108.109375 C 46.625 -104.785156 53.6875 -103.125 62.625 -103.125 C 66.570312 -103.125 70.929688 -103.644531 75.703125 -104.6875 L 85.046875 -107.484375 L 85.046875 -122.125 C 85.046875 -132.507812 86.398438 -139.050781 89.109375 -141.75 Z M 89.109375 -141.75 "/></g></g></g></g></g></svg>