<svg xmlns="http://www.w3.org/2000/svg" xmlns:xlink="http://www.w3.org/1999/xlink" width="500" zoomAndPan="magnify" viewBox="0 0 375 374.999991" height="500" preserveAspectRatio="xMidYMid meet" version="1.0"><path fill="#f0c140" d="M 201.585938 219.5 L 219.460938 201.625 L 299.960938 282.164062 L 282.125 300 Z M 255.25 147.875 L 291 112.125 C 241.625 62.75 161.625 62.625 112.25 111.875 C 161.375 95.625 216.125 108.75 255.25 147.875 Z M 111.875 112.25 C 62.625 161.625 62.75 241.625 112.125 291 L 147.875 255.25 C 108.75 216.125 95.625 161.375 111.875 112.25 Z M 112.125 112 L 112 112.125 C 107.25 149.75 126.625 198.125 165.75 237.375 L 237.375 165.75 C 198.25 126.625 149.75 107.25 112.125 112 Z M 112.125 112 " fill-opacity="1" fill-rule="nonzero"/></svg>