<svg xmlns="http://www.w3.org/2000/svg" xmlns:xlink="http://www.w3.org/1999/xlink" width="500" zoomAndPan="magnify" viewBox="0 0 375 374.999991" height="500" preserveAspectRatio="xMidYMid meet" version="1.0"><defs><clipPath id="de89ae7da6"><path d="M 78.125 37.503906 L 296.867188 37.503906 L 296.867188 337.496094 L 78.125 337.496094 Z M 78.125 37.503906 " clip-rule="nonzero"/></clipPath><clipPath id="ceb82b383e"><path d="M 78.125 139.296875 C 78.125 91.136719 127.09375 37.503906 187.496094 37.503906 C 247.898438 37.503906 296.867188 91.136719 296.867188 139.296875 C 296.867188 268.679688 187.496094 337.496094 187.496094 337.496094 C 187.496094 337.496094 78.125 272.167969 78.125 139.296875 Z M 78.125 139.296875 " clip-rule="nonzero"/></clipPath></defs><g clip-path="url(#de89ae7da6)"><g clip-path="url(#ceb82b383e)"><path stroke-linecap="butt" transform="matrix(-0.75, 0, 0, -0.75, 296.867152, 337.494616)" fill="none" stroke-linejoin="miter" d="M 291.656222 264.263672 C 291.656222 328.477218 226.364551 399.98764 145.828088 399.98764 C 65.291624 399.98764 -0.000047059 328.477218 -0.000047059 264.263672 C -0.000047059 91.753244 145.828088 -0.00197002 145.828088 -0.00197002 C 145.828088 -0.00197002 291.656222 87.102202 291.656222 264.263672 Z M 291.656222 264.263672 " stroke="#fbaba8" stroke-width="18" stroke-opacity="1" stroke-miterlimit="4"/></g></g><path fill="#fbaba8" d="M 187.496094 240.921875 L 176.128906 230.574219 C 135.742188 193.953125 109.078125 169.796875 109.078125 140.15625 C 109.078125 116.003906 128.058594 97.027344 152.210938 97.027344 C 165.855469 97.027344 178.949219 103.378906 187.496094 113.417969 C 196.046875 103.378906 209.140625 97.027344 222.785156 97.027344 C 246.9375 97.027344 265.914062 116.003906 265.914062 140.15625 C 265.914062 169.796875 239.253906 193.953125 198.867188 230.652344 Z M 187.496094 240.921875 " fill-opacity="1" fill-rule="nonzero"/></svg>