<svg xmlns="http://www.w3.org/2000/svg" xmlns:xlink="http://www.w3.org/1999/xlink" width="500" zoomAndPan="magnify" viewBox="0 0 375 374.999991" height="500" preserveAspectRatio="xMidYMid meet" version="1.0"><defs><clipPath id="5d4512b259"><path d="M 78.117188 37 L 296.867188 37 L 296.867188 338 L 78.117188 338 Z M 78.117188 37 " clip-rule="nonzero"/></clipPath><clipPath id="f599b25717"><path d="M 78.117188 139.296875 C 78.117188 91.132812 127.085938 37.5 187.492188 37.5 C 247.898438 37.5 296.867188 91.132812 296.867188 139.296875 C 296.867188 268.683594 187.492188 337.5 187.492188 337.5 C 187.492188 337.5 78.117188 272.171875 78.117188 139.296875 Z M 78.117188 139.296875 " clip-rule="nonzero"/></clipPath><clipPath id="9315cd43fe"><path d="M 0.117188 0.441406 L 218.867188 0.441406 L 218.867188 300.679688 L 0.117188 300.679688 Z M 0.117188 0.441406 " clip-rule="nonzero"/></clipPath><clipPath id="92f845e339"><path d="M 0.117188 102.296875 C 0.117188 54.132812 49.085938 0.5 109.492188 0.5 C 169.898438 0.5 218.867188 54.132812 218.867188 102.296875 C 218.867188 231.683594 109.492188 300.5 109.492188 300.5 C 109.492188 300.5 0.117188 235.171875 0.117188 102.296875 Z M 0.117188 102.296875 " clip-rule="nonzero"/></clipPath><clipPath id="40a2d7d1a0"><rect x="0" width="219" y="0" height="301"/></clipPath><clipPath id="71a927fb80"><path d="M 78.125 37.503906 L 296.867188 37.503906 L 296.867188 337.496094 L 78.125 337.496094 Z M 78.125 37.503906 " clip-rule="nonzero"/></clipPath><clipPath id="49bb0fbc37"><path d="M 78.125 139.296875 C 78.125 91.136719 127.09375 37.503906 187.496094 37.503906 C 247.898438 37.503906 296.867188 91.136719 296.867188 139.296875 C 296.867188 268.679688 187.496094 337.496094 187.496094 337.496094 C 187.496094 337.496094 78.125 272.167969 78.125 139.296875 Z M 78.125 139.296875 " clip-rule="nonzero"/></clipPath></defs><g clip-path="url(#5d4512b259)"><g clip-path="url(#f599b25717)"><g transform="matrix(1, 0, 0, 1, 78, 37)"><g clip-path="url(#40a2d7d1a0)"><g clip-path="url(#9315cd43fe)"><g clip-path="url(#92f845e339)"><path fill="#fbaba8" d="M 218.867188 300.5 L 0.117188 300.5 L 0.117188 0.574219 L 218.867188 0.574219 Z M 218.867188 300.5 " fill-opacity="1" fill-rule="nonzero"/></g></g></g></g></g></g><g clip-path="url(#71a927fb80)"><g clip-path="url(#49bb0fbc37)"><path stroke-linecap="butt" transform="matrix(-0.75, 0, 0, -0.75, 296.867152, 337.494616)" fill="none" stroke-linejoin="miter" d="M 291.656222 264.263672 C 291.656222 328.477218 226.364551 399.98764 145.828088 399.98764 C 65.291624 399.98764 -0.000047059 328.477218 -0.000047059 264.263672 C -0.000047059 91.753244 145.828088 -0.00197002 145.828088 -0.00197002 C 145.828088 -0.00197002 291.656222 87.102202 291.656222 264.263672 Z M 291.656222 264.263672 " stroke="#fbaba8" stroke-width="18" stroke-opacity="1" stroke-miterlimit="4"/></g></g><path fill="#ffffff" d="M 187.496094 240.921875 L 176.128906 230.574219 C 135.742188 193.953125 109.078125 169.796875 109.078125 140.15625 C 109.078125 116.003906 128.058594 97.027344 152.210938 97.027344 C 165.855469 97.027344 178.949219 103.378906 187.496094 113.417969 C 196.046875 103.378906 209.140625 97.027344 222.785156 97.027344 C 246.9375 97.027344 265.914062 116.003906 265.914062 140.15625 C 265.914062 169.796875 239.253906 193.953125 198.867188 230.652344 Z M 187.496094 240.921875 " fill-opacity="1" fill-rule="nonzero"/></svg>