<svg xmlns="http://www.w3.org/2000/svg" xmlns:xlink="http://www.w3.org/1999/xlink" width="500" zoomAndPan="magnify" viewBox="0 0 375 374.999991" height="500" preserveAspectRatio="xMidYMid meet" version="1.0"><path fill="#c8b8d9" d="M 187.5 75 L 187.5 150 L 225 150 L 225 179.4375 C 230.0625 173.0625 240.75 168.75 253.125 168.75 C 270.375 168.75 284.4375 177.1875 284.4375 187.5 L 225 187.5 L 225 218.4375 C 233.625 222.5625 243 225 253.125 225 C 289.3125 225 318.75 195.5625 318.75 159.375 L 318.75 75 Z M 225 145.3125 C 217.3125 145.3125 210.9375 138.9375 210.9375 131.25 C 210.9375 123.5625 217.3125 117.1875 225 117.1875 C 232.6875 117.1875 239.0625 123.5625 239.0625 131.25 C 239.0625 138.9375 232.6875 145.3125 225 145.3125 Z M 281.25 145.3125 C 273.5625 145.3125 267.1875 138.9375 267.1875 131.25 C 267.1875 123.5625 273.5625 117.1875 281.25 117.1875 C 288.9375 117.1875 295.3125 123.5625 295.3125 131.25 C 295.3125 138.9375 288.9375 145.3125 281.25 145.3125 Z M 281.25 145.3125 " fill-opacity="1" fill-rule="evenodd"/><path fill="#c8b8d9" d="M 75 253.125 C 75 289.3125 104.4375 318.75 140.625 318.75 C 176.8125 318.75 206.25 289.3125 206.25 253.125 L 206.25 168.75 L 75 168.75 Z M 140.625 281.25 C 123.375 281.25 109.3125 272.8125 109.3125 262.5 L 171.75 262.5 C 171.9375 272.8125 157.875 281.25 140.625 281.25 Z M 168.75 210.9375 C 176.4375 210.9375 182.8125 217.3125 182.8125 225 C 182.8125 232.6875 176.4375 239.0625 168.75 239.0625 C 161.0625 239.0625 154.6875 232.6875 154.6875 225 C 154.6875 217.3125 161.0625 210.9375 168.75 210.9375 Z M 112.5 210.9375 C 120.1875 210.9375 126.5625 217.3125 126.5625 225 C 126.5625 232.6875 120.1875 239.0625 112.5 239.0625 C 104.8125 239.0625 98.4375 232.6875 98.4375 225 C 98.4375 217.3125 104.8125 210.9375 112.5 210.9375 Z M 112.5 210.9375 " fill-opacity="1" fill-rule="evenodd"/></svg>