<svg xmlns="http://www.w3.org/2000/svg" xmlns:xlink="http://www.w3.org/1999/xlink" width="500" zoomAndPan="magnify" viewBox="0 0 375 374.999991" height="500" preserveAspectRatio="xMidYMid meet" version="1.0"><defs><clipPath id="348702ccf7"><path d="M 78.125 37.503906 L 296.867188 37.503906 L 296.867188 337.496094 L 78.125 337.496094 Z M 78.125 37.503906 " clip-rule="nonzero"/></clipPath><clipPath id="e5f709810a"><path d="M 78.125 139.296875 C 78.125 91.136719 127.09375 37.503906 187.496094 37.503906 C 247.898438 37.503906 296.867188 91.136719 296.867188 139.296875 C 296.867188 268.679688 187.496094 337.496094 187.496094 337.496094 C 187.496094 337.496094 78.125 272.167969 78.125 139.296875 Z M 78.125 139.296875 " clip-rule="nonzero"/></clipPath></defs><g clip-path="url(#348702ccf7)"><g clip-path="url(#e5f709810a)"><path stroke-linecap="butt" transform="matrix(-0.75, 0, 0, -0.75, 296.867152, 337.494616)" fill="none" stroke-linejoin="miter" d="M 291.656222 264.263672 C 291.656222 328.477218 226.364551 399.98764 145.828088 399.98764 C 65.291624 399.98764 -0.000047059 328.477218 -0.000047059 264.263672 C -0.000047059 91.753244 145.828088 -0.00197002 145.828088 -0.00197002 C 145.828088 -0.00197002 291.656222 87.102202 291.656222 264.263672 Z M 291.656222 264.263672 " stroke="#439e77" stroke-width="18" stroke-opacity="1" stroke-miterlimit="4"/></g></g><path fill="#439e77" d="M 215.726562 158.648438 L 168.675781 83.367188 L 121.625 158.648438 L 132.730469 158.648438 L 102.804688 205.699219 L 154.5625 205.699219 L 154.5625 233.929688 L 182.792969 233.929688 L 182.792969 205.699219 L 234.546875 205.699219 L 204.625 158.648438 Z M 215.726562 158.648438 " fill-opacity="1" fill-rule="nonzero"/><path fill="#439e77" d="M 242.265625 158.648438 L 253.367188 158.648438 L 206.316406 83.367188 L 193.050781 104.636719 L 232.667969 168.058594 L 221.75 168.058594 L 245.746094 205.699219 L 272.1875 205.699219 Z M 242.265625 158.648438 " fill-opacity="1" fill-rule="nonzero"/><path fill="#439e77" d="M 192.203125 215.109375 L 220.433594 215.109375 L 220.433594 233.929688 L 192.203125 233.929688 Z M 192.203125 215.109375 " fill-opacity="1" fill-rule="nonzero"/></svg>