<svg xmlns="http://www.w3.org/2000/svg" xmlns:xlink="http://www.w3.org/1999/xlink" width="500" zoomAndPan="magnify" viewBox="0 0 375 374.999991" height="500" preserveAspectRatio="xMidYMid meet" version="1.0"><defs><clipPath id="e8710155af"><path d="M 78.125 37.503906 L 296.867188 37.503906 L 296.867188 337.496094 L 78.125 337.496094 Z M 78.125 37.503906 " clip-rule="nonzero"/></clipPath><clipPath id="64d92a5737"><path d="M 78.125 139.296875 C 78.125 91.136719 127.09375 37.503906 187.496094 37.503906 C 247.898438 37.503906 296.867188 91.136719 296.867188 139.296875 C 296.867188 268.679688 187.496094 337.496094 187.496094 337.496094 C 187.496094 337.496094 78.125 272.167969 78.125 139.296875 Z M 78.125 139.296875 " clip-rule="nonzero"/></clipPath></defs><g clip-path="url(#e8710155af)"><g clip-path="url(#64d92a5737)"><path stroke-linecap="butt" transform="matrix(-0.75, 0, 0, -0.75, 296.867152, 337.494616)" fill="none" stroke-linejoin="miter" d="M 291.656222 264.263672 C 291.656222 328.477218 226.364551 399.98764 145.828088 399.98764 C 65.291624 399.98764 -0.000047059 328.477218 -0.000047059 264.263672 C -0.000047059 91.753244 145.828088 -0.00197002 145.828088 -0.00197002 C 145.828088 -0.00197002 291.656222 87.102202 291.656222 264.263672 Z M 291.656222 264.263672 " stroke="#ea6344" stroke-width="18" stroke-opacity="1" stroke-miterlimit="4"/></g></g><path fill="#ea6344" d="M 156.914062 167.511719 L 179.105469 145.320312 L 124.058594 90.351562 C 111.824219 102.582031 111.824219 122.421875 124.058594 134.734375 Z M 210.082031 153.320312 C 222.082031 158.886719 238.941406 154.964844 251.410156 142.496094 C 266.386719 127.519531 269.289062 106.035156 257.761719 94.507812 C 246.3125 83.058594 224.824219 85.878906 209.769531 100.859375 C 197.300781 113.328125 193.378906 130.1875 198.945312 142.183594 L 122.410156 218.71875 L 133.46875 229.777344 L 187.496094 175.902344 L 241.449219 229.855469 L 252.507812 218.796875 L 198.554688 164.847656 Z M 210.082031 153.320312 " fill-opacity="1" fill-rule="nonzero"/></svg>