<svg xmlns="http://www.w3.org/2000/svg" xmlns:xlink="http://www.w3.org/1999/xlink" width="500" zoomAndPan="magnify" viewBox="0 0 375 374.999991" height="500" preserveAspectRatio="xMidYMid meet" version="1.0"><path fill="#ffffff" d="M 125.839844 261.480469 C 112.273438 261.480469 101.300781 272.578125 101.300781 286.144531 C 101.300781 299.707031 112.273438 310.804688 125.839844 310.804688 C 139.402344 310.804688 150.5 299.707031 150.5 286.144531 C 150.5 272.578125 139.402344 261.480469 125.839844 261.480469 Z M 51.851562 64.183594 L 51.851562 88.847656 L 76.515625 88.847656 L 120.90625 182.4375 L 104.257812 212.648438 C 102.285156 216.101562 101.175781 220.171875 101.175781 224.488281 C 101.175781 238.050781 112.273438 249.148438 125.839844 249.148438 L 273.8125 249.148438 L 273.8125 224.488281 L 131.019531 224.488281 C 129.292969 224.488281 127.933594 223.132812 127.933594 221.40625 L 128.304688 219.925781 L 139.402344 199.824219 L 231.269531 199.824219 C 240.519531 199.824219 248.65625 194.769531 252.847656 187.125 L 296.992188 107.097656 C 297.980469 105.371094 298.472656 103.273438 298.472656 101.175781 C 298.472656 94.394531 292.925781 88.847656 286.144531 88.847656 L 103.765625 88.847656 L 92.175781 64.183594 Z M 249.148438 261.480469 C 235.585938 261.480469 224.609375 272.578125 224.609375 286.144531 C 224.609375 299.707031 235.585938 310.804688 249.148438 310.804688 C 262.714844 310.804688 273.8125 299.707031 273.8125 286.144531 C 273.8125 272.578125 262.714844 261.480469 249.148438 261.480469 Z M 249.148438 261.480469 " fill-opacity="1" fill-rule="nonzero"/></svg>