<svg xmlns="http://www.w3.org/2000/svg" xmlns:xlink="http://www.w3.org/1999/xlink" width="500" zoomAndPan="magnify" viewBox="0 0 375 374.999991" height="500" preserveAspectRatio="xMidYMid meet" version="1.0"><defs><clipPath id="25ec71e9a3"><path d="M 78.125 37.503906 L 296.867188 37.503906 L 296.867188 337.496094 L 78.125 337.496094 Z M 78.125 37.503906 " clip-rule="nonzero"/></clipPath><clipPath id="1229f5f3d6"><path d="M 78.125 139.296875 C 78.125 91.136719 127.09375 37.503906 187.496094 37.503906 C 247.898438 37.503906 296.867188 91.136719 296.867188 139.296875 C 296.867188 268.679688 187.496094 337.496094 187.496094 337.496094 C 187.496094 337.496094 78.125 272.167969 78.125 139.296875 Z M 78.125 139.296875 " clip-rule="nonzero"/></clipPath><clipPath id="77b0022401"><path d="M 131.195312 78.609375 L 243.695312 78.609375 L 243.695312 248.859375 L 131.195312 248.859375 Z M 131.195312 78.609375 " clip-rule="nonzero"/></clipPath></defs><g clip-path="url(#25ec71e9a3)"><g clip-path="url(#1229f5f3d6)"><path stroke-linecap="butt" transform="matrix(-0.75, 0, 0, -0.75, 296.867152, 337.494616)" fill="none" stroke-linejoin="miter" d="M 291.656222 264.263672 C 291.656222 328.477218 226.364551 399.98764 145.828088 399.98764 C 65.291624 399.98764 -0.000047059 328.477218 -0.000047059 264.263672 C -0.000047059 91.753244 145.828088 -0.00197002 145.828088 -0.00197002 C 145.828088 -0.00197002 291.656222 87.102202 291.656222 264.263672 Z M 291.656222 264.263672 " stroke="#e98e62" stroke-width="18" stroke-opacity="1" stroke-miterlimit="4"/></g></g><g clip-path="url(#77b0022401)"><path fill="#e98e62" d="M 211.480469 177.859375 C 211.480469 171.960938 216.285156 167.160156 222.183594 167.160156 C 228.078125 167.160156 232.875 171.960938 232.875 177.859375 C 232.875 183.757812 228.078125 188.558594 222.183594 188.558594 C 216.285156 188.558594 211.480469 183.757812 211.480469 177.859375 Z M 161.046875 229.320312 L 164.042969 220.296875 L 210.960938 220.296875 L 213.957031 229.320312 Z M 152.824219 188.558594 C 146.925781 188.558594 142.121094 183.757812 142.121094 177.859375 C 142.121094 171.960938 146.925781 167.160156 152.824219 167.160156 C 158.722656 167.160156 163.519531 171.960938 163.519531 177.859375 C 163.519531 183.757812 158.722656 188.558594 152.824219 188.558594 Z M 207.183594 208.917969 L 209.089844 214.660156 L 165.914062 214.660156 L 167.816406 208.917969 Z M 169.929688 184.066406 L 205.074219 184.066406 C 205.847656 184.066406 206.46875 184.6875 206.46875 185.460938 C 206.46875 186.230469 205.847656 186.855469 205.074219 186.855469 L 169.929688 186.855469 C 169.15625 186.855469 168.53125 186.230469 168.53125 185.460938 C 168.53125 184.6875 169.15625 184.066406 169.929688 184.066406 Z M 168.53125 158.820312 C 168.53125 158.050781 169.15625 157.425781 169.929688 157.425781 L 205.074219 157.425781 C 205.847656 157.425781 206.46875 158.050781 206.46875 158.820312 C 206.46875 159.59375 205.847656 160.21875 205.074219 160.21875 L 169.929688 160.21875 C 169.15625 160.21875 168.53125 159.59375 168.53125 158.820312 Z M 169.929688 170.746094 L 205.074219 170.746094 C 205.847656 170.746094 206.46875 171.371094 206.46875 172.140625 C 206.46875 172.914062 205.847656 173.539062 205.074219 173.539062 L 169.929688 173.539062 C 169.15625 173.539062 168.53125 172.914062 168.53125 172.140625 C 168.53125 171.371094 169.15625 170.746094 169.929688 170.746094 Z M 143.519531 106.269531 C 143.519531 101.1875 147.65625 97.050781 152.738281 97.050781 L 222.261719 97.050781 C 227.347656 97.050781 231.480469 101.1875 231.480469 106.269531 L 231.480469 137.984375 L 143.519531 137.984375 Z M 243.777344 187.40625 L 243.777344 106.269531 C 243.777344 94.390625 234.148438 84.753906 222.261719 84.753906 L 211.339844 84.753906 L 211.339844 81.683594 C 211.339844 79.988281 209.96875 78.605469 208.269531 78.605469 L 166.738281 78.605469 C 165.039062 78.605469 163.667969 79.988281 163.667969 81.683594 L 163.667969 84.753906 L 152.738281 84.753906 C 140.855469 84.753906 131.222656 94.390625 131.222656 106.269531 L 131.222656 187.40625 C 131.222656 199.289062 140.855469 208.917969 152.738281 208.917969 L 158.992188 208.917969 L 157.085938 214.660156 L 146.589844 214.660156 C 144.90625 214.660156 143.519531 215.929688 143.519531 217.476562 C 143.519531 219.027344 144.90625 220.296875 146.589844 220.296875 L 155.214844 220.296875 L 152.222656 229.320312 L 135.59375 229.320312 C 133.902344 229.320312 132.523438 230.707031 132.523438 232.398438 L 132.523438 233.292969 C 132.523438 234.984375 133.902344 236.363281 135.59375 236.363281 L 149.882812 236.363281 L 147.484375 243.59375 C 146.757812 245.789062 147.945312 248.15625 150.140625 248.886719 C 150.582031 249.03125 151.023438 249.101562 151.460938 249.101562 C 153.21875 249.101562 154.851562 247.988281 155.4375 246.230469 L 158.710938 236.363281 L 216.292969 236.363281 L 219.566406 246.230469 C 220.148438 247.988281 221.785156 249.101562 223.542969 249.101562 C 223.976562 249.101562 224.421875 249.03125 224.863281 248.886719 C 227.058594 248.15625 228.246094 245.789062 227.515625 243.59375 L 225.117188 236.363281 L 239.40625 236.363281 C 241.09375 236.363281 242.480469 234.984375 242.480469 233.292969 L 242.480469 232.398438 C 242.480469 230.707031 241.09375 229.320312 239.40625 229.320312 L 222.78125 229.320312 L 219.789062 220.296875 L 228.410156 220.296875 C 230.101562 220.296875 231.480469 219.027344 231.480469 217.476562 C 231.480469 215.929688 230.101562 214.660156 228.410156 214.660156 L 217.917969 214.660156 L 216.011719 208.917969 L 222.261719 208.917969 C 234.148438 208.917969 243.777344 199.289062 243.777344 187.40625 " fill-opacity="1" fill-rule="nonzero"/></g></svg>