<svg xmlns="http://www.w3.org/2000/svg" xmlns:xlink="http://www.w3.org/1999/xlink" width="500" zoomAndPan="magnify" viewBox="0 0 375 374.999991" height="500" preserveAspectRatio="xMidYMid meet" version="1.0"><defs><clipPath id="141a27d46d"><path d="M 88.429688 37.5 L 286.429688 37.5 L 286.429688 337.5 L 88.429688 337.5 Z M 88.429688 37.5 " clip-rule="nonzero"/></clipPath></defs><g clip-path="url(#141a27d46d)"><path fill="#ffffff" d="M 229.695312 212.136719 C 229.695312 201.757812 238.144531 193.308594 248.527344 193.308594 C 258.898438 193.308594 267.339844 201.757812 267.339844 212.136719 C 267.339844 222.515625 258.898438 230.960938 248.527344 230.960938 C 238.144531 230.960938 229.695312 222.515625 229.695312 212.136719 Z M 140.953125 302.6875 L 146.21875 286.808594 L 228.777344 286.808594 L 234.046875 302.6875 Z M 126.484375 230.960938 C 116.101562 230.960938 107.652344 222.515625 107.652344 212.136719 C 107.652344 201.757812 116.101562 193.308594 126.484375 193.308594 C 136.859375 193.308594 145.304688 201.757812 145.304688 212.136719 C 145.304688 222.515625 136.859375 230.960938 126.484375 230.960938 Z M 222.132812 266.785156 L 225.488281 276.890625 L 149.511719 276.890625 L 152.867188 266.785156 Z M 156.578125 223.054688 L 218.421875 223.054688 C 219.78125 223.054688 220.878906 224.152344 220.878906 225.511719 C 220.878906 226.867188 219.78125 227.96875 218.421875 227.96875 L 156.578125 227.96875 C 155.222656 227.96875 154.121094 226.867188 154.121094 225.511719 C 154.121094 224.152344 155.222656 223.054688 156.578125 223.054688 Z M 154.121094 178.636719 C 154.121094 177.28125 155.222656 176.179688 156.578125 176.179688 L 218.421875 176.179688 C 219.78125 176.179688 220.878906 177.28125 220.878906 178.636719 C 220.878906 179.996094 219.78125 181.09375 218.421875 181.09375 L 156.578125 181.09375 C 155.222656 181.09375 154.121094 179.996094 154.121094 178.636719 Z M 156.578125 199.617188 L 218.421875 199.617188 C 219.78125 199.617188 220.878906 200.714844 220.878906 202.074219 C 220.878906 203.433594 219.78125 204.53125 218.421875 204.53125 L 156.578125 204.53125 C 155.222656 204.53125 154.121094 203.433594 154.121094 202.074219 C 154.121094 200.714844 155.222656 199.617188 156.578125 199.617188 Z M 110.109375 86.171875 C 110.109375 77.222656 117.386719 69.945312 126.328125 69.945312 L 248.664062 69.945312 C 257.613281 69.945312 264.882812 77.222656 264.882812 86.171875 L 264.882812 141.972656 L 110.109375 141.972656 Z M 286.519531 228.933594 L 286.519531 86.171875 C 286.519531 65.261719 269.578125 48.3125 248.664062 48.3125 L 229.445312 48.3125 L 229.445312 42.90625 C 229.445312 39.921875 227.035156 37.492188 224.042969 37.492188 L 150.964844 37.492188 C 147.976562 37.492188 145.5625 39.921875 145.5625 42.90625 L 145.5625 48.3125 L 126.328125 48.3125 C 105.425781 48.3125 88.472656 65.261719 88.472656 86.171875 L 88.472656 228.933594 C 88.472656 249.839844 105.425781 266.785156 126.328125 266.785156 L 137.335938 266.785156 L 133.980469 276.890625 L 115.511719 276.890625 C 112.550781 276.890625 110.109375 279.121094 110.109375 281.84375 C 110.109375 284.574219 112.550781 286.808594 115.511719 286.808594 L 130.691406 286.808594 L 125.421875 302.6875 L 96.167969 302.6875 C 93.191406 302.6875 90.757812 305.125 90.757812 308.097656 L 90.757812 309.679688 C 90.757812 312.652344 93.191406 315.078125 96.167969 315.078125 L 121.308594 315.078125 L 117.089844 327.796875 C 115.808594 331.660156 117.898438 335.828125 121.761719 337.113281 C 122.535156 337.367188 123.316406 337.488281 124.085938 337.488281 C 127.175781 337.488281 130.050781 335.53125 131.078125 332.4375 L 136.839844 315.078125 L 238.160156 315.078125 L 243.921875 332.4375 C 244.949219 335.53125 247.828125 337.488281 250.914062 337.488281 C 251.683594 337.488281 252.464844 337.367188 253.238281 337.113281 C 257.101562 335.828125 259.191406 331.660156 257.910156 327.796875 L 253.6875 315.078125 L 278.828125 315.078125 C 281.796875 315.078125 284.242188 312.652344 284.242188 309.679688 L 284.242188 308.097656 C 284.242188 305.125 281.796875 302.6875 278.828125 302.6875 L 249.578125 302.6875 L 244.308594 286.808594 L 259.480469 286.808594 C 262.457031 286.808594 264.882812 284.574219 264.882812 281.84375 C 264.882812 279.121094 262.457031 276.890625 259.480469 276.890625 L 241.019531 276.890625 L 237.664062 266.785156 L 248.664062 266.785156 C 269.578125 266.785156 286.519531 249.839844 286.519531 228.933594 " fill-opacity="1" fill-rule="nonzero"/></g></svg>